<svg id="组_2322" data-name="组 2322" xmlns="http://www.w3.org/2000/svg" width="80.196" height="80.195" viewBox="0 0 80.196 80.195">
  <path id="路径_1208" data-name="路径 1208" d="M300.776,263.766H285.8v2.045h14.976Zm21.131-45.846c-.334-.029-.679-.067-1.013-.086-.382-.038-.755-.076-1.128-.134.373.057.755.1,1.128.134C321.229,217.853,321.564,217.9,321.908,217.92Z" transform="translate(-265.233 -204.865)" fill="#e12319"/>
  <path id="路径_1209" data-name="路径 1209" d="M137.176,83.4H84.219A13.619,13.619,0,0,0,70.6,97.019v52.957A13.619,13.619,0,0,0,84.219,163.6h52.957A13.619,13.619,0,0,0,150.8,149.976V97.019A13.619,13.619,0,0,0,137.176,83.4ZM85.643,106.328c.172-.459.315-.917.526-1.357a7.764,7.764,0,0,1,.994-1.548,14.54,14.54,0,0,0,2.208-3.966c.325-.8.679-1.6,1-2.408a1.491,1.491,0,0,1,2.007-.841,3.1,3.1,0,0,1,1.08.612,22.009,22.009,0,0,0,1.978,1.367c.115.076.2.115.325-.019a13.333,13.333,0,0,1,4.578-3.058,43.131,43.131,0,0,1,10.484-3.058,41.9,41.9,0,0,1,8.888-.44c.057,0,.115-.01.172-.01.172-.162.325-.1.487.019a.706.706,0,0,0,.344.029.126.126,0,0,1,.21.019c.421.038.831.086,1.252.124a.121.121,0,0,1,.2.019c.143.019.277.029.421.048.057-.057.1-.048.134.019a.46.46,0,0,0,.277.038c.115-.1.21-.067.3.048.7.153,1.4.287,2.1.459a13.119,13.119,0,0,1,5.295,2.361,3.881,3.881,0,0,1,1.481,3.909,18.388,18.388,0,0,1-2.2,6.126c-.134.239-.373.363-.535.564.076.373-.287.554-.373.86-.076.258-.306.421-.468.621-.01.038-.019.086-.076.057,0,.048.019.124-.067.067.057.153-.1.22-.162.306a18.556,18.556,0,0,1-3.555,3.422,20.442,20.442,0,0,1-9.223,3.938,9.013,9.013,0,0,1-2.533-.1c-.621-.067-1.242-.143-1.864-.268-.115-.019-.248-.115-.363.01-.01.01-.038.019-.048.029-.067-.44-.459-.258-.679-.306a21.549,21.549,0,0,1-5.448-2.246,29.528,29.528,0,0,1-6.3-4.387,14.383,14.383,0,0,1-3.488-4.779,4.977,4.977,0,0,1-.354-1.166.57.57,0,0,0-.449-.545,10.984,10.984,0,0,1,.038,1.94,5.666,5.666,0,0,1-3.928,5.314,10.341,10.341,0,0,1-2.514.765,2.069,2.069,0,0,1-2.16-2.59Zm6.509,45.244A29.428,29.428,0,0,1,90,154.554a1.993,1.993,0,0,1-2.428.707,13.545,13.545,0,0,0,.975-1.768c.659-1.749,1.29-3.517,1.845-5.3.182-.573.335-.879.984-.841.784.048,1.567.01,2.7.01C93.375,148.934,92.869,150.31,92.152,151.572Zm8.047-.765c-.048,3.135-1.835,4.74-5.1,4.521V154c1.911-.679,2.007-.822,2.007-2.925v-4.912H88.2v-5.515h20.883V146.1H100.2v3.422c0,.421.01.86,0,1.29Zm7.235,3.88a17,17,0,0,1-4-7.283h3c1.042,2.7,2.045,5.3,3.058,7.923A1.918,1.918,0,0,1,107.434,154.688Zm2.408-15.54H87.45v-1.577h9.615c.048-.459.076-.812.124-1.242h2.944c.057.392.115.774.191,1.262H107.5c.363,0,.726-.01,1.09-.01C110,137.561,110.015,137.571,109.842,139.148Zm2.552-16.486a21.5,21.5,0,0,0-.937,2.877c-.067.22-.143.335-.392.325-.287,0-.659.172-.841.01s-.019-.545,0-.822a24.071,24.071,0,0,0,.067-3.326,2.644,2.644,0,0,0-.918.564c-1.042.87-1.9,1.911-2.877,2.838a5.414,5.414,0,0,0-.468.468,1.02,1.02,0,0,1-.8.325c-.277.029-.334-.057-.191-.315.526-.879,1.032-1.768,1.548-2.647.277-.478.545-.975.851-1.443.153-.239.048-.287-.143-.335a2.572,2.572,0,0,1-.956-.478,2.2,2.2,0,0,1-.7-2.4,2.892,2.892,0,0,0,.449.984,1.727,1.727,0,0,0,2.4.344.64.64,0,0,0,.191-.248q1.29-2.15,2.561-4.31a.414.414,0,0,1,.526-.229,11.388,11.388,0,0,0,3.46.239,4.193,4.193,0,0,0,1.644-.507v.573c-.029,3.46-.057,6.929-.067,10.389,0,.325-.1.382-.392.354-.726-.067-.717-.057-.9-.774a23.727,23.727,0,0,0-.612-2.428,3.317,3.317,0,0,0-.659-1.137c-.411-.411-.717-.411-1.137,0a3.7,3.7,0,0,0-.707,1.109Zm3,32.4c-.382.334-1.109.277-1.768.421.784-1.778,1.5-3.345,2.16-4.932a5.277,5.277,0,0,0,.516-1.873c.019-1.214.65-1.434,1.673-1.328.593.057,1.2.01,1.95.01A15.788,15.788,0,0,1,115.4,155.06Zm17.949-.459a16.993,16.993,0,0,1-3.909-7.082c.2-.086.229-.105.268-.105,2.848-.287,2.819-.277,3.594,2.418a21.7,21.7,0,0,0,1.061,2.848c.392.879.9,1.711,1.367,2.6a2.158,2.158,0,0,1-2.38-.679Zm2.523-15.425c-.335.019-.717.057-1.1.057-4.387.01-8.783.029-13.17-.01a1.451,1.451,0,0,0-1.634,1.032c-.526,1.338-1.185,2.628-1.892,4.167,1.711,0,3.24.029,4.779-.038.172-.01.449-.487.468-.765.057-.927.019-1.864.019-2.877h3.03v3.66h8.669v1.7h-8.649c0,1.663.01,3.173,0,4.683-.019,3.135-1.778,4.74-5.037,4.568-.239-.831-.315-1.462.841-1.739a1.657,1.657,0,0,0,1.013-1.2c.105-2.045.048-4.11.048-6.3h-9.089c1.07-2.332,2.064-4.482,3.154-6.862h-3.89V137.58c1.3,0,2.6.019,3.9-.01.306-.01.8-.076.87-.248.736-1.854,2.246-.812,3.565-1.137-.172.526-.287.851-.449,1.338h14.546c.01.612.01,1.061.01,1.653Z" transform="translate(-70.6 -83.4)" fill="#e12319"/>
  <path id="路径_1210" data-name="路径 1210" d="M269.947,183.882c.076.172-.086.229-.153.325a18.558,18.558,0,0,1-3.555,3.422,20.442,20.442,0,0,1-9.223,3.938,9.012,9.012,0,0,1-2.533-.1c-.621-.067-1.242-.143-1.864-.268-.115-.019-.249-.115-.363.01-.01.01-.038.019-.048.029-.067-.44-.459-.258-.679-.306a21.55,21.55,0,0,1-5.448-2.246,29.527,29.527,0,0,1-6.3-4.387,14.383,14.383,0,0,1-3.488-4.779,4.978,4.978,0,0,1-.354-1.166.57.57,0,0,0-.449-.545,10.989,10.989,0,0,1,.038,1.94,5.666,5.666,0,0,1-3.928,5.314,10.343,10.343,0,0,1-2.514.765,2.066,2.066,0,0,1-2.15-2.59c.172-.459.315-.918.526-1.357a7.765,7.765,0,0,1,.994-1.548,14.539,14.539,0,0,0,2.208-3.966c.325-.8.679-1.6,1-2.408a1.491,1.491,0,0,1,2.007-.841,3.1,3.1,0,0,1,1.08.612,22,22,0,0,0,1.978,1.367c.115.076.2.115.325-.019a13.333,13.333,0,0,1,4.578-3.058,43.132,43.132,0,0,1,10.484-3.058,41.9,41.9,0,0,1,8.888-.44c.057,0,.115-.01.172-.01.162.01.325.01.487.019a.706.706,0,0,0,.344.029c.067.01.134.01.21.019.421.038.832.086,1.252.124.067.01.134.01.2.019.143.019.277.029.421.048.048.01.1.01.134.019a.46.46,0,0,0,.277.038c.1.019.2.029.3.048.7.153,1.4.287,2.1.459A13.119,13.119,0,0,1,272.2,171.7a3.881,3.881,0,0,1,1.481,3.909,18.388,18.388,0,0,1-2.2,6.126c-.134.239-.373.363-.535.564a3.114,3.114,0,0,0-.421.143,8.792,8.792,0,0,1-2.284.707,18.032,18.032,0,0,1-8.869-.688,13.511,13.511,0,0,1-6.595-4.912.542.542,0,0,0-.7-.191.718.718,0,0,0-.124.822,15.852,15.852,0,0,0,1.806,2.112,15.265,15.265,0,0,0,8.248,4.014,18.913,18.913,0,0,0,5.964.067A14.1,14.1,0,0,0,269.947,183.882Zm-2.389-10.58a12.637,12.637,0,0,0,1.806.086,4.158,4.158,0,0,0,2.17-.659.774.774,0,0,0,.153-1.185,1.566,1.566,0,0,0-.449-.382,5.775,5.775,0,0,0-2.1-.745,9.835,9.835,0,0,0-2.313-.057,4.6,4.6,0,0,0-1.759.449,1.261,1.261,0,0,0-.784,1.032c0,.507.459.745.87.946a6.926,6.926,0,0,0,2.408.516Zm-15.473-.038a1.318,1.318,0,0,0,1.156,1.357,1.5,1.5,0,0,0,1.462-1.061,1.359,1.359,0,0,0-1.176-1.338A1.242,1.242,0,0,0,252.085,173.264Z" transform="translate(-211.896 -160.333)" fill="#eee"/>
  <path id="路径_1211" data-name="路径 1211" d="M430.964,413.427a2.9,2.9,0,0,0,.449.984,1.727,1.727,0,0,0,2.4.344.64.64,0,0,0,.191-.248q1.29-2.15,2.561-4.31a.414.414,0,0,1,.526-.229,11.387,11.387,0,0,0,3.46.239,4.193,4.193,0,0,0,1.644-.507v.573c-.029,3.46-.057,6.929-.067,10.389,0,.325-.1.382-.392.354-.726-.067-.717-.057-.9-.774a23.743,23.743,0,0,0-.612-2.428,3.318,3.318,0,0,0-.66-1.137c-.411-.411-.717-.411-1.137,0a3.649,3.649,0,0,0-.688,1.08,21.518,21.518,0,0,0-.937,2.877c-.067.22-.143.335-.392.325-.287,0-.659.172-.841.01s-.019-.545,0-.822a24.064,24.064,0,0,0,.067-3.326,2.643,2.643,0,0,0-.917.564c-1.042.87-1.9,1.911-2.877,2.839a5.426,5.426,0,0,0-.468.468,1.02,1.02,0,0,1-.8.325c-.277.029-.335-.057-.191-.315.526-.879,1.032-1.768,1.548-2.647.277-.478.545-.975.851-1.443.153-.239.048-.287-.143-.334a2.575,2.575,0,0,1-.956-.478A2.139,2.139,0,0,1,430.964,413.427Z" transform="translate(-395.927 -378.515)" fill="#eee"/>
  <path id="路径_1212" data-name="路径 1212" d="M506.953,183.723a13.883,13.883,0,0,1-1.978.478,18.91,18.91,0,0,1-5.964-.067,15.3,15.3,0,0,1-8.248-4.014,14.65,14.65,0,0,1-1.806-2.112.721.721,0,0,1,.124-.822.54.54,0,0,1,.7.191,13.511,13.511,0,0,0,6.595,4.912,18.137,18.137,0,0,0,8.869.688,8.68,8.68,0,0,0,2.284-.707c.134-.057.277-.1.421-.143.077.373-.287.554-.373.86-.076.258-.306.421-.468.621-.048-.01-.076.01-.076.057l.01-.01C506.982,183.666,506.934,183.666,506.953,183.723Zm-8.286-15.32c-.163-.01-.325-.01-.487-.019C498.352,168.221,498.514,168.288,498.667,168.4Zm3.144.325c-.1-.019-.2-.029-.3-.048A.192.192,0,0,1,501.812,168.728Zm-2.59-.287c-.067-.01-.134-.01-.21-.019A.13.13,0,0,1,499.222,168.441Zm1.462.143c-.067-.01-.134-.01-.2-.019C500.55,168.5,500.617,168.508,500.684,168.585Zm.554.067c-.048-.01-.1-.01-.134-.019C501.152,168.575,501.2,168.585,501.238,168.652Z" transform="translate(-448.902 -160.174)" fill="#282526"/>
  <path id="路径_1213" data-name="路径 1213" d="M678.7,328.757c.01-.048.038-.057.076-.057C678.767,328.738,678.767,328.786,678.7,328.757Z" transform="translate(-620.582 -305.256)" fill="#eee"/>
  <path id="路径_1214" data-name="路径 1214" d="M677.888,329.267c-.01-.067.038-.067.086-.067C677.965,329.248,678,329.353,677.888,329.267Z" transform="translate(-619.847 -305.708)" fill="#eee"/>
  <path id="路径_1215" data-name="路径 1215" d="M621.978,190.909a7.428,7.428,0,0,1-2.408-.507c-.421-.2-.87-.44-.87-.946a1.248,1.248,0,0,1,.784-1.032,4.6,4.6,0,0,1,1.758-.449,9.839,9.839,0,0,1,2.313.057,5.957,5.957,0,0,1,2.1.745,1.568,1.568,0,0,1,.449.382.774.774,0,0,1-.153,1.185,4.246,4.246,0,0,1-2.169.659A12.638,12.638,0,0,1,621.978,190.909Z" transform="translate(-566.316 -177.94)" fill="#282526"/>
  <path id="路径_1216" data-name="路径 1216" d="M491.048,208.778a1.246,1.246,0,0,1,1.453-1.042,1.368,1.368,0,0,1,1.176,1.338,1.527,1.527,0,0,1-1.462,1.061A1.312,1.312,0,0,1,491.048,208.778Z" transform="translate(-450.859 -195.847)" fill="#444243"/>
  <path id="路径_1217" data-name="路径 1217" d="M276.7,638.717h-3.89v-1.673c1.3,0,2.6.019,3.9-.009.306-.01.8-.076.87-.249.736-1.854,2.246-.812,3.565-1.137-.172.526-.287.851-.449,1.338h14.546v1.653c-.335.019-.717.057-1.1.057-4.387.01-8.783.029-13.17-.01a1.451,1.451,0,0,0-1.634,1.032c-.526,1.338-1.185,2.628-1.892,4.167,1.711,0,3.24.029,4.779-.038.172-.01.449-.487.468-.765.057-.927.019-1.864.019-2.877h3.03v3.66h8.669v1.7h-8.649c0,1.663.01,3.173,0,4.683-.019,3.135-1.778,4.74-5.037,4.568-.239-.831-.315-1.462.841-1.739a1.657,1.657,0,0,0,1.013-1.2c.105-2.045.048-4.11.048-6.3h-9.089C274.612,643.247,275.606,641.087,276.7,638.717Zm-22.24,16.075v-1.328c1.912-.679,2.007-.822,2.007-2.924v-4.912h-8.9v-5.515h20.883v5.448h-8.888v4.731C259.511,653.407,257.734,655.022,254.455,654.792Zm-3.928-10.981H265.5v-2.045H250.527Zm-3.727-5.2v-1.577h9.615c.048-.459.076-.812.124-1.242h2.944c.057.392.115.774.191,1.262h7.178c.363,0,.726-.01,1.09-.01,1.434-.009,1.434,0,1.262,1.577C261.776,638.612,254.341,638.612,246.8,638.612Z" transform="translate(-229.96 -582.865)" fill="#fff"/>
  <path id="路径_1218" data-name="路径 1218" d="M290.061,752.048c.2-.086.229-.105.268-.105,2.848-.287,2.819-.277,3.594,2.418a21.706,21.706,0,0,0,1.061,2.848c.392.879.9,1.711,1.367,2.6a2.139,2.139,0,0,1-2.38-.669A16.922,16.922,0,0,1,290.061,752.048Zm-26.006-.105h3c1.042,2.7,2.045,5.3,3.058,7.923a1.9,1.9,0,0,1-2.045-.631A17.049,17.049,0,0,1,264.056,751.943Zm-9.338-.048c-.707,1.577-1.223,2.953-1.94,4.224a29.413,29.413,0,0,1-2.15,2.982,1.993,1.993,0,0,1-2.428.707,13.536,13.536,0,0,0,.975-1.768c.659-1.749,1.29-3.517,1.845-5.3.182-.573.335-.879.984-.841.784.038,1.567,0,2.714,0Zm25.824-.01a15.6,15.6,0,0,1-4.53,7.7c-.382.335-1.109.277-1.768.421.784-1.778,1.5-3.345,2.16-4.932a5.277,5.277,0,0,0,.516-1.873c.019-1.214.65-1.434,1.673-1.328C279.185,751.934,279.8,751.886,280.542,751.886Z" transform="translate(-231.226 -687.938)" fill="#fff"/>
</svg>
