<?xml version="1.0" encoding="utf-8"?>
<!-- Generator: Adobe Illustrator 24.0.0, SVG Export Plug-In . SVG Version: 6.00 Build 0)  -->
<svg version="1.1" id="图层_1" xmlns="http://www.w3.org/2000/svg" xmlns:xlink="http://www.w3.org/1999/xlink" x="0px" y="0px"
	 viewBox="0 0 80.6 80.6" style="enable-background:new 0 0 80.6 80.6;" xml:space="preserve">
<style type="text/css">
	.st0{fill:#F40009;}
	.st1{fill:#FFFFFF;}
</style>
<path class="st0" d="M70,80.6H10.6C4.8,80.6,0,75.8,0,70V11.5C0,5.2,5.2,0,11.5,0H70c5.8,0,10.6,4.8,10.6,10.6V70
	C80.6,75.8,75.8,80.6,70,80.6L70,80.6L70,80.6z"/>
<path id="路径_1231" class="st1" d="M66.4,45.2c0.6,0.1,1.1,0.3,1.4,0.7c0.4,0.6,0.3,1.5-0.3,2c-0.3,0.3-0.7,0.4-1.1,0.4v0.8
	c0,0.4-0.3,0.7-0.6,0.7c0,0,0,0,0,0h-5c-0.3,0-0.6-0.3-0.6-0.6V44c0-0.1,0.1-0.3,0.3-0.2h5.8c0.1,0,0.2,0.1,0.2,0.2V45.2L66.4,45.2z
	 M66.5,48.1L66.5,48.1z M34.3,29.7l-1.5,0.5l1,1.8l0.6,0.1l0.2,2.1l-2,0.3l0.9,3l1-0.9l0.3,2.8L33,40.1l2.9,2.1l0.7-5.8l0.5-0.7
	l0.5,1.5l1.2,0.1l0.2,4.9l1.4-0.9l1-4.3l1.6,0.1l0.8,5l1.3-0.9l0.6-4l2.4-0.3l-0.6-1.9l-2-0.4l0.6-2.4h1.6l-0.6-1.9l-2.5,0l2.5-2
	l-2.5-2l-1.5,3.8l-1.7,0.4l0.8-2.6l-3.5-1.5l1.3,3.8L38,30.8v-1.1l-1.2-0.2l-1.1-3.1L34.3,29.7L34.3,29.7z M37.3,31.3l0.6,1.2
	l1.2,0.3l0.4,1.9l-1.8,0.6l0.5-1.2l-1.8,0.1l0.3-2.2L37.3,31.3L37.3,31.3z M41.8,32.8l1.5-0.3l0.2,2.2l-2,0.4L41.8,32.8L41.8,32.8
	L41.8,32.8z M22.5,11L7.2,21.9l15.3,11.2V11z M23.7,11v22l15.8-10.9L23.7,11L23.7,11z M7.2,23.4v21.9l15.1-10.9L7.2,23.4L7.2,23.4z
	 M22.5,35.5L7.2,46.2l15.3,11.2V35.5z M23.7,35.5v21.9l15-11L23.7,35.5L23.7,35.5z M24.3,58.4l15.5,11.2l-0.1-22.1L24.3,58.4
	L24.3,58.4L24.3,58.4z M40.8,47.5v22.1l15.5-11.2L40.8,47.5L40.8,47.5z M41.7,46.5l15.2,10.9l-0.1-22L41.7,46.5
	C41.7,46.5,41.7,46.5,41.7,46.5z M57.9,35.4v22l15.5-11.1L57.9,35.4L57.9,35.4z M58.3,34.3l15.1,11V23.4L58.3,34.3L58.3,34.3
	L58.3,34.3z M57.9,11v22l15.5-11.2L57.9,11L57.9,11z M56.9,11l-16,11.2l16,10.9V11z M44.1,55.4c0.3-0.6,0.9-1.1,1.6-1.1V54
	c0-0.1,0.1-0.2,0.2-0.2c0,0,0,0,0,0h0.3c0.1,0,0.2,0.1,0.2,0.2l0,0v0.3c1.4,0.2,1.5,1.1,1.5,1.1h0.1c0.3,0,0.4,0.2,0.4,0.3
	c0,0.1-0.1,0.2-0.3,0.2h-4.4c-0.1,0-0.3-0.1-0.3-0.3c0,0,0,0,0,0c0-0.1,0.1-0.3,0.3-0.3L44.1,55.4L44.1,55.4z M30.4,18.2
	c1,0.2,1.9,0.6,2.8,1.1c0.2,0.1,0.1,0.5,0,0.6l-0.8,1L32,20.5v4.3c0,0.3-0.2,0.5-0.5,0.5H27c-0.2,0-0.4-0.2-0.4-0.4v-4.3l-0.4,0.4
	l-0.8-1.2c-0.1-0.1-0.1-0.2,0-0.3c0,0,0,0,0,0c0.8-0.6,1.8-0.9,2.8-1.2c0.1,0.6,0.7,1.1,1.3,1C30,19.1,30.4,18.7,30.4,18.2
	L30.4,18.2L30.4,18.2z M15.7,25c-0.3,0.2-0.6,0.2-0.9,0.1c-0.3-0.2-0.5-0.6-0.4-0.9l1.5-2.6c0.1-0.1,0.2-0.3,0.3-0.5
	c0-0.3-0.1-0.3-0.2-0.8c-0.1-0.3-0.1-0.6-0.1-0.9c0-0.2,0.1-0.4,0.2-0.6c-0.1-0.4-0.1-0.7,0-0.8c0.1,0,0.2,0,0.2,0
	c0.2,0.1,0.4,0.4,0.3,0.6c0.1,0,0.2,0,0.3,0.1c0.2,0.1,0.4,0.2,0.5,0.4c0.2-0.3,0.5-0.4,0.8-0.5c0-0.3,0.1-0.5,0.3-0.6
	c0.1,0,0.2,0,0.2,0c0.1,0.1,0.2,0.4,0,0.8c0.1,0.2,0.2,0.3,0.3,0.5c0.1,0.2,0,0.4-0.1,0.8c-0.1,0.3-0.2,0.6-0.3,1.1
	c0.4,0.8,0.9,1.6,1.4,2.3c0.2,0.3,0.3,0.4,0.4,0.6c0.1,0.4,0,0.9-0.4,1.1c-0.3,0.1-0.6,0.1-0.9-0.1c-0.2,0.3-0.5,0.4-0.8,0.5
	c-0.4,0-0.7-0.1-1-0.3c-0.2,0.2-0.5,0.4-0.8,0.3C16.2,25.6,15.9,25.3,15.7,25L15.7,25z M11.3,32.1c0-0.9,0.8-1.6,1.7-1.6
	c0.9,0,1.6,0.7,1.6,1.6c0.4,0,0.7,0.2,1,0.4c0.3,0.4,0.5,0.8,0.6,1.3c0.2,0.8,0.3,1.7,0.3,2.5c-0.1,0.5-0.6,0.9-1.1,1h-4.7
	c-0.6-0.1-1.1-0.5-1.2-1.1c-0.1-1.1,0.1-2.1,0.5-3.1c0.1-0.3,0.3-0.5,0.6-0.7C10.7,32.2,11,32.1,11.3,32.1L11.3,32.1L11.3,32.1z
	 M19.9,49.4l0-3.5c-0.1-0.1-0.1-0.2-0.2-0.3c-0.2-0.1-0.5,0.2-0.5,0.3c-0.5,0.5-0.5,1.1-0.8,2.2c-0.3,1.2-0.8,1.3-2.4,1.3
	c-0.9,0.1-1.7-0.2-2.4-0.8c-0.2-0.3,0.5-0.7,1.4-1c0.7-0.2,1.4-0.4,2.1-0.5c0.5-0.7,0.8-1.5,1.1-2.3c0.4-0.9,1-1.7,1.7-2.3
	c0.7,0.3,1.2,0.9,1.3,1.6c0.1,0.5-0.6,1.8-0.8,2.6c-0.1,0.4,0,2.7,0,2.7L19.9,49.4L19.9,49.4z M25.9,49.1c-0.2,0-0.4-0.2-0.4-0.4
	v-4.5c0-0.2,0.2-0.4,0.4-0.5c0.5,0,0.9,0,1.4-0.1c0.1-0.2,0.3-0.3,0.5-0.7c0.1-0.1,0.2-0.2,0.3-0.2h2.5c0.2,0,0.3,0.1,0.4,0.2
	c0.3,0.4,0.4,0.5,0.5,0.6h1.1c0.2,0,0.3,0.1,0.5,0.2c0.1,0.1,0.2,0.2,0.2,0.3v4.6c0,0.2-0.2,0.4-0.4,0.4L25.9,49.1L25.9,49.1z
	 M34.5,53.6l0.4,0.6H34L34.5,53.6L34.5,53.6z M30.2,58.2c0.2-1.2,0.8-2.3,1.8-3c1.2-0.9,2.7-1.1,4.1-0.6c0.5,0.2,1,0.5,1.4,0.9
	c0.4,0.3,0.6,0.6,0.9,1c0.5,1.1,0.3,1.6,0.5,1.6c-0.7-0.4-1.5-0.4-2.1,0c-0.5-0.3-1.2-0.4-1.7-0.2v3.3c-0.2,0.8-1.1,1.2-1.8,0.9
	c-0.6-0.2-1-0.7-1-1.3c0-0.1,0-0.2,0.1-0.3c0,0,0.2-0.3,0.4-0.3c0.2,0,0.4,0.2,0.4,0.4c0.1,0.2,0,0.3,0.1,0.4
	c0.2,0.2,0.5,0.3,0.7,0.2c0.1-0.1,0.2-0.2,0.2-0.3L34,58c-0.6-0.2-1.2-0.1-1.7,0.3c-0.3-0.2-0.7-0.3-1.1-0.3
	C30.9,57.9,30.5,58,30.2,58.2L30.2,58.2L30.2,58.2z M43.5,56.9c0-0.2,0.2-0.4,0.4-0.4h0h4.2c0.2,0,0.4,0.2,0.4,0.4v4
	c0,0.3-0.2,0.6-0.5,0.6h-3.9c-0.4,0-0.7-0.3-0.7-0.7c0,0,0,0,0,0L43.5,56.9L43.5,56.9z M50.3,43.6l0.3-1.2c0-0.2,0.2-0.3,0.3-0.3
	h1.7c0.2,0,0.3,0.1,0.4,0.3l0.3,1.2C52.5,43,51.3,43,50.3,43.6L50.3,43.6z M53.4,48.9l-0.3,1.2c0,0.2-0.2,0.3-0.3,0.3H51
	c-0.2,0-0.3-0.1-0.4-0.3l-0.3-1.2C51.2,49.5,52.5,49.5,53.4,48.9L53.4,48.9z M49.4,46.2c-0.1-1.4,1-2.5,2.4-2.6s2.5,1,2.6,2.4
	c0.1,1.4-1,2.5-2.4,2.6c0,0-0.1,0-0.1,0C50.5,48.6,49.4,47.5,49.4,46.2z M61.1,43.1h-0.3c-0.1,0-0.2-0.1-0.2-0.2V42
	c0-0.1,0.1-0.2,0.2-0.2c0,0,0,0,0,0h0.3c0.1,0,0.2,0.1,0.2,0.2v0.9C61.3,43,61.2,43.1,61.1,43.1L61.1,43.1z M63.3,43.1H63
	c-0.1,0-0.2-0.1-0.2-0.2l0,0v-1.1c0-0.1,0.1-0.2,0.2-0.2h0.3c0.1,0,0.2,0.1,0.2,0.2v1.1C63.5,43,63.4,43.1,63.3,43.1L63.3,43.1
	L63.3,43.1L63.3,43.1z M65.5,43.1h-0.3c-0.1,0-0.2-0.1-0.2-0.2c0,0,0,0,0,0V42c0-0.1,0.1-0.2,0.2-0.2c0,0,0,0,0,0h0.3
	c0.1,0,0.2,0.1,0.2,0.2c0,0,0,0,0,0v0.9C65.7,43,65.6,43.1,65.5,43.1L65.5,43.1z M63.3,34c0.3-0.5,0.6-0.9,1-1.3
	c0.6-0.5,1.4-0.7,2.1-0.8c0.3-0.3,0.6-0.6,0.9-0.8c0.3-0.2,0.8-0.4,1-0.3c0.1,0.4,0.1,0.9,0,1.4c0.2,0.1,0.4,0.2,0.7,0.3
	c0.6,0.2,1.1,1,1.4,1s0.7-0.7,1.1-0.9c0.3-0.1,0.7,0,0.8,0.3c0,0.1,0.1,0.2,0.1,0.3c-0.1,0.4-0.2,0.8-0.5,1.1
	c0.2,0.3,0.3,0.6,0.4,0.9c0.2,0.5-0.2,0.8-0.6,0.7s-1-0.9-1.3-1s-0.5,0.2-0.9,0.6c-0.4,0.3-0.8,0.5-1.2,0.7v1.1
	c0,0.3-0.1,0.5-0.4,0.4c-0.5-0.3-1-0.7-1.5-1.1c-0.6,0-1.2-0.1-1.6-0.5c-0.6-0.4-1.1-0.9-1.5-1.5C63.2,34.4,63.2,34.2,63.3,34
	L63.3,34z M59.9,22.3c-0.1-1.9,1.4-3.4,3.3-3.5c1.9-0.1,3.4,1.4,3.5,3.3s-1.4,3.4-3.3,3.5c0,0-0.1,0-0.1,0
	C61.4,25.6,59.9,24.1,59.9,22.3L59.9,22.3z M60.7,17.1c0.5-0.1,1-0.1,1.5,0.1c0.8,0.3,0.9,1.5,0.9,1.5c-0.5,0.2-1.1,0.2-1.5-0.2
	C61.1,18.2,60.8,17.7,60.7,17.1C60.7,17.1,60.7,17.1,60.7,17.1z M65.1,17.5c0,0.4-0.3,0.8-0.6,1c-0.3,0.3-0.8,0.3-1.2,0.1
	c0,0,0.1-0.9,0.7-1.1C64.4,17.5,64.7,17.4,65.1,17.5L65.1,17.5z M50.2,25.2C50.2,25.2,50.2,25.2,50.2,25.2
	C50.2,25.2,50.2,25.2,50.2,25.2l1.4-0.7v-1.2c0,0-0.2-0.2-0.7-0.6c-0.7-0.6-1.3-1.3-1.6-2.1c-0.1-0.9,0-1.8,0.2-2.7h4.7
	c0.2,0.7,0.3,1.5,0.3,2.2c-0.1,0.9-0.6,1.7-1.2,2.2c-0.5,0.4-1.2,1-1.2,1v1.2c0.2,0.1,0.5,0.3,0.7,0.3c0.3,0.1,0.6,0.2,0.9,0.4
	c0,0,0,0.1,0,0.1L50.2,25.2L50.2,25.2z M11.8,32H14c0,0-0.2-0.9-1.1-0.9S11.8,32,11.8,32L11.8,32L11.8,32z M66.4,47.8
	c0.8-0.3,1.1-0.7,0.9-1.2c-0.1-0.3-0.4-0.6-0.9-0.7V47.8L66.4,47.8z"/>
</svg>
