<svg id="组_2323" data-name="组 2323" xmlns="http://www.w3.org/2000/svg" width="80.245" height="80.244" viewBox="0 0 80.245 80.244">
  <path id="路径_1209" data-name="路径 1209" d="M137.217,83.4H84.228A13.628,13.628,0,0,0,70.6,97.027v52.989a13.628,13.628,0,0,0,13.628,13.627h52.99a13.628,13.628,0,0,0,13.628-13.627V97.027A13.628,13.628,0,0,0,137.217,83.4Z" transform="translate(-70.6 -83.4)" fill="#ff5c00"/>
  <path id="路径_1219" data-name="路径 1219" d="M145.755,215.915a44.3,44.3,0,0,1-4.981,9.881,18.864,18.864,0,0,1-2.265,2.7l-.9.916,2.635,1.51,2.619,1.494.578-.562c.691-.675,2.265-2.426,3.037-3.374l.562-.707,1.607-.643,1.639-.723h.209l-.289.514a50.1,50.1,0,0,1-5.045,7.5,5.684,5.684,0,0,0-.595.755,19.568,19.568,0,0,0,1.607,1.43l1.607,1.366h-3.213v3.792h10.54v9.046h-.691a4.933,4.933,0,0,1-3.213-1.093c-.627-.691-.8-1.912-.562-4.065,0-.627.112-1.253.112-1.414v-.305h-3.679a25.119,25.119,0,0,0-3.856.1,6.057,6.057,0,0,0-.386,2.715,12.13,12.13,0,0,0,.321,3.744,6.7,6.7,0,0,0,5.35,5.318,14.876,14.876,0,0,0,3.6.145,37.47,37.47,0,0,0,4.049-.128,26.688,26.688,0,0,0,12.147-4.049,3.713,3.713,0,0,1,.851-.5s.273.916.546,1.96.514,1.9.53,1.912,1.4-.53,3.053-1.221a26.129,26.129,0,0,0,3-1.35c0-.128-4.017-9.946-4.065-9.978s-4.82,1.446-4.949,1.51.177.771.434,1.607.45,1.687.45,1.735a11.52,11.52,0,0,1-1.976,1.221,22.6,22.6,0,0,1-2.249.948v-7.889h10.46v-3.776H163.943v-4.724H174.5v-3.792H155.813l.418-.514a13.047,13.047,0,0,0,2.233-3.551s-.659-.209-1.43-.418l-1.607-.434a36.81,36.81,0,0,1,6.427-2.057c4.676-1.157,8.307-1.35,10.813-.53a5.591,5.591,0,0,1,2.394,1.462,3.888,3.888,0,0,1,1,1.334,6.813,6.813,0,0,1,.707,2.49c0,.514.08,4.37,0,12.757v12.034l-.209.675a5.737,5.737,0,0,1-1.607,2.683,6.748,6.748,0,0,1-4.82,1.607,12.242,12.242,0,0,1-3.213-.482,20.009,20.009,0,0,0-2.314-.434s-1.044,4.065-1.044,4.226.241.193,1.607.482a25.2,25.2,0,0,0,6.057.578,16.068,16.068,0,0,0,5.125-.514,10.669,10.669,0,0,0,8.532-9.64c.273-2.1.514-5.527.627-8.8a86.9,86.9,0,0,0-.852-15.794,8.034,8.034,0,0,0-1.43-3.615c-3.021-4.274-9.64-6.057-18.863-5.029a81.821,81.821,0,0,0-11.52,2.33,3.21,3.21,0,0,1-.707.161,8.247,8.247,0,0,1,.45-.932,12.676,12.676,0,0,0,1.3-2.747s-7.439-2.137-7.584-2.137a8.676,8.676,0,0,0-.546,1.35Zm9.351,19.666v2.378h-7.262l2.3-2.346,2.314-2.362h2.651Zm-21.128-20.116a5.366,5.366,0,0,0-4.21,3.712,4.627,4.627,0,0,0,0,2.474,5.736,5.736,0,0,0,8.725,2.506,4.643,4.643,0,0,0,2.153-3.872,4.37,4.37,0,0,0-1.382-3.213,5.463,5.463,0,0,0-2.86-1.607A9.077,9.077,0,0,0,133.978,215.465Zm-5.125,14.364c-.916,1.414-1.607,2.619-1.607,2.667a37.357,37.357,0,0,0,3.213,2.057c4.177,2.6,3.92,2.426,4.563,3.069,1.8,1.8,1.816,3.84.08,6.427a77.574,77.574,0,0,1-8.885,9.64,19.972,19.972,0,0,0-1.494,1.478s8.162,5.141,8.259,5.141.145-.145.225-.321c.289-.691,2.33-5.029,3.824-8.146.852-1.783,1.687-3.615,1.864-4.049a41.26,41.26,0,0,0,1.992-6.8,13.508,13.508,0,0,0,.08-1.816,6.217,6.217,0,0,0-.161-1.816,7.086,7.086,0,0,0-1.028-2.2,47.582,47.582,0,0,0-4.4-4.306c-1.157-.932-4.579-3.519-4.756-3.583a21.147,21.147,0,0,0-1.767,2.555Z" transform="translate(-114.996 -197.608)" fill="#fff"/>
</svg>
