<svg id="组_2321" data-name="组 2321" xmlns="http://www.w3.org/2000/svg" width="80.412" height="80.439" viewBox="0 0 80.412 80.439">
  <path id="路径_1202" data-name="路径 1202" d="M149.353,827.075a25.856,25.856,0,0,1,.324-8.927,6.577,6.577,0,0,1,1.757-3.648,8.624,8.624,0,0,0-6.179,3.108c-2.486,3.018-2.738,6.35-1.171,9.881h5.45A.577.577,0,0,1,149.353,827.075ZM176.5,821.13a19.637,19.637,0,0,0-2.054.054c-.73.126-.91.568-.486,1.171.631.883,1.27,1.757,1.91,2.63a.724.724,0,0,0,1.216-.009c.631-.865,1.252-1.738,1.883-2.6.45-.622.279-1.054-.486-1.189A16.147,16.147,0,0,0,176.5,821.13Zm21.763,5.747a25.551,25.551,0,0,1-.072-6.26c.261-2.171.531-4.351,2.117-6.116A8.664,8.664,0,0,0,194,817.833a8.846,8.846,0,0,0-.991,9.656h5.423C198.328,827.408,198.31,827.237,198.265,826.877Zm-43.742.612h5.414c1.6-3.63,1.3-7.008-1.315-10.053a8.292,8.292,0,0,0-5.945-2.891,4.788,4.788,0,0,1,.874,1.216,10.8,10.8,0,0,1,.775,2.279,21.836,21.836,0,0,1,.567,5.134,25.059,25.059,0,0,1-.261,4.026A.481.481,0,0,1,154.523,827.489Zm48.975,0h5.333a8.931,8.931,0,0,0-1.351-10.152c-1.739-1.928-4.54-2.909-5.891-2.747a4.437,4.437,0,0,1,1.315,2.189,24.067,24.067,0,0,1,.649,10.593C203.535,827.417,203.517,827.453,203.5,827.489Z" transform="translate(-136.238 -747.123)" fill="#fff"/>
  <path id="路径_1203" data-name="路径 1203" d="M147.523,662.3a15.215,15.215,0,0,0-1.513-5.567,4.251,4.251,0,0,0-2.522-2.279,4.471,4.471,0,0,0-3.657.5c-.468.27-.847.649-1.279.946a4.732,4.732,0,0,0-.937.856c-.73.847-1.405,1.739-2.144,2.576-1.315,1.486-2.864,2.72-4.261,4.117a13.718,13.718,0,0,1-3.81,2.612,15.442,15.442,0,0,1-3.756,1.288,16.845,16.845,0,0,1-3.3.333q-12.12,0-24.249.009a18.525,18.525,0,0,1-5.495-.6,14.7,14.7,0,0,1-2.729-.973,12.577,12.577,0,0,1-1.982-1.117c-.378-.288-.775-.576-1.144-.883s-.775-.558-1.117-.892c-1.333-1.3-2.711-2.549-3.954-3.945-.694-.784-1.36-1.594-2.072-2.36a8.934,8.934,0,0,0-2.657-2.153c-.432-.207-.892-.342-1.306-.568h-.036l-.027-.009c-.243,0-.5,0-.739-.009a3.332,3.332,0,0,0-1.811.459,7.3,7.3,0,0,0-1.405,1.009c-.1.09-.063.306-.27.288-.306.6-.6,1.207-.856,1.838a16.423,16.423,0,0,0-.892,3.522c-.117.712-.189,1.432-.288,2.153-.009.8-.018,1.594-.018,2.4v6.08a10.207,10.207,0,0,0,7.738,9.458,8.777,8.777,0,0,1,1.27-9.665,8.592,8.592,0,0,1,6.179-3.108,6.638,6.638,0,0,0-1.757,3.648,25.845,25.845,0,0,0-.324,8.927c.045.387.171.5.567.5,1.423-.027,2.855-.018,4.279-.009.279,0,.4-.045.441-.36a26.288,26.288,0,0,0,.261-4.026,21.938,21.938,0,0,0-.567-5.134,10.792,10.792,0,0,0-.775-2.279,4.579,4.579,0,0,0-.874-1.216,8.293,8.293,0,0,1,5.945,2.891c2.63,3.054,2.919,6.45,1.3,10.1h33.113a8.848,8.848,0,0,1,.964-9.7,8.633,8.633,0,0,1,6.314-3.333c-1.585,1.766-1.856,3.945-2.117,6.116a25.541,25.541,0,0,0,.072,6.26c.081.676.072.676.739.676h4.2c.144,0,.3.063.333-.2a24.067,24.067,0,0,0-.649-10.593,4.437,4.437,0,0,0-1.315-2.189c1.36-.162,4.153.82,5.891,2.747a8.931,8.931,0,0,1,1.468,9.917,10.205,10.205,0,0,0,7.684-9.89V663.09A1.806,1.806,0,0,1,147.523,662.3ZM110,676.475c-.631.865-1.252,1.739-1.883,2.6a.724.724,0,0,1-1.216.009c-.64-.874-1.279-1.747-1.91-2.63-.432-.6-.252-1.036.486-1.171a19.667,19.667,0,0,1,2.054-.054,17.952,17.952,0,0,1,1.973.054C110.267,675.43,110.438,675.862,110,676.475Z" transform="translate(-67.264 -601.234)"/>
  <path id="路径_1204" data-name="路径 1204" d="M674.248,421.38c.982.009,1.964,0,2.936,0,.108,0,.225-.018.333-.027v-4.819H672.6v3.189A1.582,1.582,0,0,0,674.248,421.38Zm3.27-12.98h-4.873v4.774h4.873Zm8.278,8.152h-4.909v4.837c1.126,0,2.216.009,3.315,0a1.56,1.56,0,0,0,1.594-1.621c.009-.847,0-1.7,0-2.549Z" transform="translate(-618.04 -377.603)" fill="#da0b06"/>
  <path id="路径_1205" data-name="路径 1205" d="M137.1,66.5H77.106A10.209,10.209,0,0,0,66.9,76.706c.009,17.8.018,52.587.027,51.992.09-.721.171-1.441.288-2.153a16.56,16.56,0,0,1,.892-3.522c.252-.631.549-1.234.856-1.838.207.018.162-.2.27-.288a7.3,7.3,0,0,1,1.405-1.009,3.413,3.413,0,0,1,1.811-.459c.243.009.5.009.739.009l.027.009h.036c.423.225.883.36,1.306.567a8.935,8.935,0,0,1,2.657,2.153c.712.766,1.369,1.585,2.072,2.36,1.243,1.387,2.621,2.639,3.954,3.945.342.333.757.585,1.117.892s.757.595,1.144.883a13.807,13.807,0,0,0,1.982,1.117,16.127,16.127,0,0,0,2.729.973,18.52,18.52,0,0,0,5.495.6q12.12-.014,24.249-.009a17.562,17.562,0,0,0,3.3-.333,15.832,15.832,0,0,0,3.756-1.288,13.716,13.716,0,0,0,3.81-2.612c1.4-1.4,2.955-2.63,4.261-4.117.739-.838,1.414-1.738,2.144-2.576a4.73,4.73,0,0,1,.937-.856c.441-.3.811-.676,1.279-.946a4.438,4.438,0,0,1,3.657-.5,4.251,4.251,0,0,1,2.522,2.279,12.01,12.01,0,0,1,1.153,3.225,10.833,10.833,0,0,1,.36,2.342,2.5,2.5,0,0,0,.144.847v-51.7A10.168,10.168,0,0,0,137.1,66.5ZM103.58,113.43c-5.215-3.009-10.035-6.368-12.863-11.971-2.837,5.576-7.63,8.99-12.872,11.971-.549-.973-1.072-1.9-1.612-2.864.631-.378,1.243-.73,1.838-1.1a30.887,30.887,0,0,0,7.2-5.765,14.619,14.619,0,0,0,3.324-6.017,1.44,1.44,0,0,0,.045-.189.481.481,0,0,0-.027-.117h-.414c-3.792,0-7.585-.009-11.386.009-.378,0-.486-.108-.477-.486.027-.793.009-1.594.009-2.4,0-.126.009-.252.018-.423H89.005V87.218H77.664v-3.3c.144-.009.279-.018.414-.018q12.62,0,25.24-.009c.387,0,.486.117.477.486-.027.793-.027,1.594,0,2.4.009.351-.1.441-.441.441q-5.243-.014-10.476-.009c-.513,0-.513,0-.513.5,0,1.964.009,3.927-.009,5.891,0,.378.108.486.486.486q5.851-.014,11.692-.009h.567c0,1.072.009,2.072-.009,3.081,0,.072-.135.189-.216.2a2.781,2.781,0,0,1-.549.018H93.221c-.126,0-.252.018-.441.027.054.225.081.405.135.586a15.869,15.869,0,0,0,4.378,6.909,37.116,37.116,0,0,0,7.684,5.522c.054.036.108.063.216.135C104.67,111.5,104.138,112.439,103.58,113.43Zm9.674-2.729c-1.072.928-2.261,1.72-3.4,2.576a2.377,2.377,0,0,1-.315.171c-.27-.459-.522-.91-.784-1.36-.225-.387-.423-.784-.667-1.153-.171-.27-.108-.4.144-.549a16.117,16.117,0,0,0,3.387-2.711A4.783,4.783,0,0,0,113,104.242c-.009-.766,0-1.54,0-2.4-1.153.685-2.243,1.324-3.387,2-.567-.955-1.117-1.874-1.693-2.828.721-.432,1.405-.847,2.1-1.261.91-.54,1.829-1.072,2.729-1.621a.575.575,0,0,0,.27-.369c.018-1.063.009-2.117.009-3.18a.438.438,0,0,0-.054-.153c-1.117.658-2.207,1.306-3.342,1.973-.081-.117-.162-.216-.225-.324-.441-.73-.865-1.459-1.315-2.18-.162-.252-.108-.36.144-.5,1.5-.874,2.991-1.775,4.486-2.648a.521.521,0,0,0,.306-.531c-.018-.315-.009-.631-.027-.937a1.788,1.788,0,0,0-1.657-1.91,23.017,23.017,0,0,0-2.846-.216c-.315-.009-.432-.072-.432-.405.018-.937.009-1.883.009-2.8.054-.036.081-.063.1-.063a10.544,10.544,0,0,1,5.369.784,4.62,4.62,0,0,1,2.72,4.062c.117,1.991.09,4,.09,6,.009,2.955-.072,5.909,0,8.864a8.6,8.6,0,0,1-3.1,7.107Zm24.708-16.088v14.043a4.848,4.848,0,0,1-4.927,4.918h-9.963a4.851,4.851,0,0,1-4.909-4.9V93.991h19.8Zm-.4-5.378c-.775-.018-1.54-.009-2.315,0h-.432c0,.73-.018,1.423.009,2.108.018.387-.081.531-.5.513-.784-.036-1.567-.009-2.351-.009-.144,0-.279-.009-.459-.018V89.28a3.3,3.3,0,0,0-.378-.036q-3.081,0-6.161-.009c-.324,0-.441.081-.423.414.027.631,0,1.252.009,1.883,0,.234-.072.324-.315.315-.892-.009-1.784-.009-2.666,0-.3.009-.342-.126-.342-.378.009-.73,0-1.459,0-2.234H118.2V85.948h3.045v-1.63c0-.5,0-.5.513-.5h2.8v2.1h6.954V84.317c0-.5,0-.5.513-.5.775,0,1.54.018,2.315-.009.369-.009.513.081.486.477-.036.531-.009,1.063-.009,1.657h3.126c.009.207.027.387.027.558,0,.784-.018,1.567.009,2.351,0,.315-.117.4-.414.387Z" transform="translate(-66.9 -66.5)" fill="#da0b06"/>
  <path id="路径_1206" data-name="路径 1206" d="M769.418,408.385c0-.27-.207-.225-.369-.225-1.414,0-2.828-.009-4.234,0-.1,0-.2.018-.315.027v4.774h4.918Z" transform="translate(-701.662 -377.38)" fill="#da0b06"/>
  <path id="路径_1207" data-name="路径 1207" d="M199.379,268.772c0,1.072.009,2.072-.009,3.081,0,.072-.135.189-.216.2a2.778,2.778,0,0,1-.549.018H187.5c-.126,0-.252.018-.441.027.054.225.081.405.135.586a15.868,15.868,0,0,0,4.378,6.909,37.115,37.115,0,0,0,7.684,5.522c.054.036.108.063.216.135-.531.946-1.063,1.883-1.621,2.873-5.215-3.009-10.035-6.368-12.863-11.971-2.837,5.576-7.63,8.99-12.872,11.971-.549-.973-1.072-1.9-1.612-2.864.631-.378,1.243-.73,1.838-1.1a30.886,30.886,0,0,0,7.2-5.765,14.619,14.619,0,0,0,3.324-6.017,1.445,1.445,0,0,0,.045-.189.481.481,0,0,0-.027-.117h-.414c-3.792,0-7.585-.009-11.386.009-.378,0-.486-.108-.477-.486.027-.793.009-1.594.009-2.4,0-.126.009-.252.018-.423h12.647v-6.864H171.932v-3.3c.144-.009.279-.018.414-.018q12.62,0,25.24-.009c.387,0,.486.117.477.486-.027.793-.027,1.594,0,2.4.009.351-.1.441-.441.441q-5.243-.014-10.476-.009c-.513,0-.513,0-.513.5,0,1.964.009,3.927-.009,5.891,0,.378.108.486.486.486q5.851-.014,11.692-.009Zm13.052-.063h19.8v14.647a4.848,4.848,0,0,1-4.927,4.918H217.34a4.851,4.851,0,0,1-4.909-4.9V268.709Zm11.575,8.062h4.918v-4.576c0-.27-.207-.225-.369-.225-1.414,0-2.828-.009-4.234,0-.1,0-.2.018-.315.027ZM215.773,272v4.774h4.873V272Zm13.151,8.152h-4.909v4.837c1.126,0,2.216.009,3.315,0a1.56,1.56,0,0,0,1.594-1.621c.009-.847,0-1.7,0-2.549Zm-13.187-.018v3.189a1.57,1.57,0,0,0,1.639,1.657c.982.009,1.964,0,2.937,0,.108,0,.225-.018.333-.027V280.13Zm-11.845-1.567c-.567-.955-1.117-1.874-1.693-2.828.721-.432,1.405-.847,2.1-1.261.91-.54,1.829-1.072,2.729-1.621a.575.575,0,0,0,.27-.369c.018-1.063.009-2.117.009-3.18a.438.438,0,0,0-.054-.153c-1.117.658-2.207,1.306-3.342,1.973-.081-.117-.162-.216-.225-.324-.441-.73-.865-1.459-1.315-2.18-.162-.252-.108-.36.144-.5,1.5-.874,2.991-1.774,4.486-2.648a.522.522,0,0,0,.306-.531c-.018-.315-.009-.631-.027-.937a1.788,1.788,0,0,0-1.657-1.91,23.012,23.012,0,0,0-2.846-.216c-.315-.009-.432-.072-.432-.405.018-.937.009-1.883.009-2.8.054-.036.081-.063.1-.063a10.545,10.545,0,0,1,5.369.784,4.62,4.62,0,0,1,2.72,4.063c.117,1.991.09,4,.09,6,.009,2.955-.072,5.909,0,8.864a8.649,8.649,0,0,1-3.1,7.107c-1.072.928-2.261,1.72-3.4,2.576a2.376,2.376,0,0,1-.315.171c-.27-.459-.522-.91-.784-1.36-.225-.387-.423-.784-.667-1.153-.171-.27-.108-.4.144-.549a16.116,16.116,0,0,0,3.387-2.711,4.783,4.783,0,0,0,1.387-3.432c-.009-.766,0-1.54,0-2.4C206.126,277.239,205.036,277.887,203.892,278.563Zm25.186-17.934H232.2c.009.207.027.387.027.558,0,.784-.018,1.567.009,2.351.009.324-.108.4-.405.387-.775-.018-1.54-.009-2.315,0h-.432c0,.73-.018,1.423.009,2.108.018.387-.081.531-.5.513-.784-.036-1.567-.009-2.351-.009-.144,0-.279-.009-.459-.018v-2.549a3.3,3.3,0,0,0-.378-.036q-3.081,0-6.161-.009c-.324,0-.441.081-.423.414.027.631,0,1.252.009,1.883,0,.234-.072.324-.315.315-.892-.009-1.784-.009-2.666,0-.3.009-.342-.126-.342-.378.009-.73,0-1.459,0-2.234h-3.045v-3.288h3.045v-1.63c0-.5,0-.5.513-.5h2.8v2.1h6.954v-1.594c0-.5,0-.5.513-.5.775,0,1.54.018,2.315-.009.369-.009.513.081.486.477C229.05,259.5,229.077,260.034,229.077,260.629Z" transform="translate(-161.168 -241.199)" fill="#fff"/>
</svg>
