<?xml version="1.0" encoding="UTF-8"?>
<svg width="12px" height="12px" viewBox="0 0 12 12" version="1.1" xmlns="http://www.w3.org/2000/svg" xmlns:xlink="http://www.w3.org/1999/xlink">
    <!-- Generator: Sketch 61 (89581) - https://sketch.com -->
    <title>已认证</title>
    <desc>Created with Sketch.</desc>
    <g id="新版" stroke="none" stroke-width="1" fill="none" fill-rule="evenodd">
        <g id="详情-修改版" transform="translate(-46.000000, -175.000000)" fill-rule="nonzero">
            <g id="main-body" transform="translate(15.000000, 145.000000)">
                <g id="user">
                    <g id="编组-9" transform="translate(31.000000, 30.000000)">
                        <g id="已认证">
                            <path d="M0.25,6 C0.25,9.17563731 2.82436269,11.75 6,11.75 C9.17563731,11.75 11.75,9.17563731 11.75,6 C11.75,2.82436269 9.17563731,0.25 6,0.25 C2.82436269,0.25 0.25,2.82436269 0.25,6 Z" id="路径" stroke="#FFFFFF" stroke-width="0.5" fill="#47A3FF"></path>
                            <path d="M9.92598107,7.7090095 L7.88392897,9.88845349 C7.74270715,10.0371822 7.51571709,10.0371822 7.37449527,9.88845349 L7.25792993,9.75943779 L6.44197254,8.63976571 C6.32769475,8.48572821 6.33968379,8.26474686 6.46985616,8.12581631 C6.60002854,7.98688576 6.80707925,7.97409008 6.95140625,8.09605663 L7.73282576,9.01759743 L9.41223012,7.17451582 C9.55655712,7.05254927 9.76360782,7.06534496 9.8937802,7.20427551 C10.0239526,7.34320605 10.0359416,7.5641874 9.92166382,7.71822491 L9.92598107,7.7090095 Z M8.45129335,7.20179265 L7.90057318,7.71965684 C6.95492526,7.032873 5.71351832,6.89942152 4.64242967,7.3694058 C3.57134102,7.83939008 2.83265196,8.84169029 2.70369798,10 L2,10 C2.13645665,8.49198133 3.11833418,7.1907482 4.53506107,6.64041045 C3.61443119,6.00719503 3.21426373,4.85153009 3.54735418,3.78795905 C3.88044464,2.72438801 4.86940934,2 5.98835039,2 C7.10729144,2 8.09625614,2.72438801 8.4293466,3.78795905 C8.76243705,4.85153009 8.36226959,6.00719503 7.44163971,6.64041045 C7.79953149,6.78005241 8.13520227,6.97061189 8.43818095,7.20614444 L8.45129335,7.20179265 Z M7.81818182,4.54548113 C7.81818182,3.81010598 7.37520252,3.1471406 6.69580447,2.8657247 C6.01640642,2.58430881 5.23438543,2.73986245 4.71439667,3.25985121 C4.19440791,3.77983996 4.03885427,4.56186095 4.32027015,5.241259 C4.60168604,5.92065706 5.26465142,6.36363636 6.00002657,6.36363636 C7.00416598,6.36363636 7.81818182,5.54962054 7.81818182,4.54548113 L7.81818182,4.54548113 Z" id="形状" fill="#FFFFFF"></path>
                        </g>
                    </g>
                </g>
            </g>
        </g>
    </g>
</svg>