<?xml version="1.0" standalone="no"?>
<!DOCTYPE svg PUBLIC "-//W3C//DTD SVG 1.1//EN" "http://www.w3.org/Graphics/SVG/1.1/DTD/svg11.dtd" >
<!--
2013-9-30: Created.
-->
<svg>
<metadata>
Created by iconfont
</metadata>
<defs>

<font id="iconfont" horiz-adv-x="1024" >
  <font-face
    font-family="iconfont"
    font-weight="500"
    font-stretch="normal"
    units-per-em="1024"
    ascent="896"
    descent="-128"
  />
    <missing-glyph />
    
    <glyph glyph-name="video1" unicode="&#58947;" d="M116.2752 830.3616a48.128 48.128 0 0 1-14.0288-32.1024v-825.8048a43.52 43.52 0 0 1 14.0288-32.1024c9.3696-9.216 21.0944-13.7728 32.768-13.7728h725.6576c11.6736 0 24.1664 4.608 32.768 13.7728a44.9024 44.9024 0 0 1 14.0288 32.1024V584.192l-306.9952 259.9424H149.0432a45.4144 45.4144 0 0 1-32.768-13.7728z m527.7696-514.304l-218.9824-134.2464a43.52 43.52 0 0 0-44.4416-0.7168 44.7488 44.7488 0 0 0-22.3744 38.8608V489.1136c0 16.128 8.5504 30.976 22.3744 38.912a43.52 43.52 0 0 0 44.4416-0.7168l218.9824-134.2464c13.312-8.192 21.4016-22.784 21.4016-38.5024a45.1072 45.1072 0 0 0-21.4016-38.5024z"  horiz-adv-x="1024" />

    
    <glyph glyph-name="video" unicode="&#58946;" d="M720.1792 3.9424H93.2864a93.184 93.184 0 0 0-92.8768 92.8768V700.5696a93.184 93.184 0 0 0 92.8768 92.8768h626.8928a93.184 93.184 0 0 0 92.928-92.8768V96.768a93.184 93.184 0 0 0-92.928-92.8768zM93.2864 723.8144c-13.9776 0-23.2448-9.3184-23.2448-23.2448V96.768c0-13.9264 9.2672-23.1936 23.2448-23.1936h626.8928c13.9776 0 23.2448 9.2672 23.2448 23.1936V700.5696c0 13.9264-9.2672 23.1936-23.2448 23.1936H93.2864zM255.7952 421.888A114.9952 114.9952 0 0 0 139.776 538.0608c0 65.024 51.0464 116.1216 116.0704 116.1216s116.1216-51.0976 116.1216-116.1216c0-65.024-51.0976-116.0704-116.1216-116.0704z m0 162.56a46.592 46.592 0 0 1-46.4384-46.4384 46.592 46.592 0 0 1 46.4384-46.4384 46.592 46.592 0 0 1 46.4384 46.4384 46.592 46.592 0 0 1-46.4384 46.4384z m719.872-499.2a39.2192 39.2192 0 0 0-23.2448 6.9632l-208.9984 120.7296V584.448l208.9984 120.7808c11.5712 6.9632 23.1936 6.9632 34.816 4.608 11.6224-2.304 23.1936-9.2672 27.8528-20.8896 4.608-6.9632 6.9632-16.2304 6.9632-23.1936v-534.0672a46.592 46.592 0 0 0-46.4384-46.4384zM813.056 252.416l139.264-81.2544V626.2784l-139.264-81.3056v-292.5568z"  horiz-adv-x="1024" />

    
    <glyph glyph-name="selected" unicode="&#58945;" d="M158.72 440a56 56 0 0 1-77.44-80.832l324.8-311.616a56 56 0 0 1 82.112 4.928l459.136 560a56 56 0 1 1-86.656 71.04L439.936 170.24 158.784 440Z"  horiz-adv-x="24064" />

    
    <glyph glyph-name="add" unicode="&#58944;" d="M972.8 332.8h-409.6v-409.6H460.8v409.6H51.2V435.2h409.6V844.8h102.4v-409.6h409.6v-102.4z"  horiz-adv-x="1024" />

    
    <glyph glyph-name="wxpay" unicode="&#58943;" d="M386.914462 285.380923a29.341538 29.341538 0 0 0-13.784616-3.150769 30.208 30.208 0 0 0-26.702769 15.753846l-2.126769 4.135385-84.125539 180.854153c-1.024 2.126769-1.024 4.135385-1.024 6.301539 0 8.428308 6.380308 14.729846 14.926769 14.729846 3.150769 0 6.380308-1.024 9.570462-3.150769l99.052308-69.395692c7.404308-4.174769 15.950769-7.325538 25.52123-7.325539 5.356308 0 10.633846 1.024 15.95077 3.150769l464.423384 203.894154c-83.101538 96.728615-220.396308 159.783385-375.965538 159.783385-253.479385 0-460.130462-169.235692-460.130462-378.289231 0-113.506462 61.794462-216.497231 158.680616-285.892923a30.916923 30.916923 0 0 0 12.760615-24.182154c0-3.150769-1.024-6.301538-2.166154-9.452308-7.404308-28.356923-20.283077-74.633846-20.283077-76.681846a38.006154 38.006154 0 0 1-2.166154-11.579077c0-8.428308 6.380308-14.729846 14.966154-14.729846a12.169846 12.169846 0 0 1 8.507077 3.150769l100.036923 57.816616c7.483077 4.135385 15.990154 7.286154 24.536616 7.286154 4.214154 0 9.570462-0.984615 13.784615-2.12677 46.867692-13.587692 98.028308-21.031385 150.212923-21.031384 253.479385 0 460.130462 169.275077 460.130462 378.328615 0 63.094154-19.180308 122.919385-52.224 175.537231L390.104615 287.507692l-3.190153-2.126769z"  horiz-adv-x="1024" />

    
    <glyph glyph-name="wallet" unicode="&#58942;" d="M971.224615 190.385231c4.450462 0 8.822154 0.315077 13.39077 0.905846v-208.541539a89.206154 89.206154 0 0 0-69.001847-71.207384H114.057846A88.969846 88.969846 0 0 0 39.384615-11.027692V576.984615c0.118154 49.624615 39.384615 89.875692 87.788308 89.875693h773.513846c43.835077-1.772308 79.320615-36.509538 83.771077-80.817231v-204.248615a95.350154 95.350154 0 0 1-13.312 0.94523h-147.298461c-52.263385 0-94.680615-43.047385-94.680616-96.17723 0-53.090462 42.417231-96.098462 94.72-96.098462h147.298462v-0.078769z m-164.391384 97.476923c0 23.512615 18.786462 42.614154 42.023384 42.614154 23.158154 0 41.944615-19.101538 41.944616-42.614154a42.299077 42.299077 0 0 0-41.944616-42.653539 42.299077 42.299077 0 0 0-41.944615 42.653539h-0.078769z m27.726769 435.278769h-384.905846l221.577846 124.179692c39.384615 19.771077 87.276308 7.089231 111.773538-29.538461L834.56 723.101538V723.101538z"  horiz-adv-x="1024" />

    
    <glyph glyph-name="alipay" unicode="&#58941;" d="M980.164923 212.598154V675.761231A180.972308 180.972308 0 0 1 799.232 856.615385h-578.953846A180.932923 180.932923 0 0 1 39.384615 675.721846v-578.953846a180.932923 180.932923 0 0 1 180.893539-180.893538h578.953846a181.051077 181.051077 0 0 1 178.136615 148.91323c-48.009846 20.795077-255.881846 110.552615-364.228923 162.264616-82.432-99.879385-168.763077-159.783385-298.889846-159.783385-130.126769 0-216.969846 80.147692-206.532923 178.215385 6.892308 64.393846 51.042462 169.668923 242.845539 151.630769 101.100308-9.491692 147.377231-28.356923 229.769846-55.611077a648.270769 648.270769 0 0 1 52.499692 127.921231H267.303385v36.233846h180.854153v64.984615H227.564308V610.619077h220.632615V704.472615s1.969231 14.690462 18.195692 14.690462h90.466462v-108.544h235.165538V570.683077H556.898462V505.698462h191.881846a740.430769 740.430769 0 0 0-77.981539-195.347693c55.768615-20.204308 309.405538-97.752615 309.405539-97.752615zM299.835077 129.417846c-137.452308 0-159.232 86.803692-151.945846 123.076923 7.246769 36.076308 47.064615 83.219692 123.510154 83.219693 87.827692 0 166.518154-22.528 260.962461-68.450462-66.363077-86.409846-147.849846-137.846154-232.526769-137.846154z"  horiz-adv-x="1024" />

    
    <glyph glyph-name="unordered-list" unicode="&#58940;" d="M262.712889 782.222222h665.088v-112.981333H262.712889V782.222222z m-166.684445 0h113.208889v-112.981333h-113.208889V782.222222z m166.684445-340.081778h665.088v-112.981333H262.712889V442.140444z m-166.684445 0h113.208889v-112.981333h-113.208889V442.140444zM262.656 99.555556h665.088v-112.981334H262.712889V99.555556z m-166.684444 0h113.208888v-112.981334h-113.208888V99.555556z"  horiz-adv-x="1024" />

    
    <glyph glyph-name="title" unicode="&#58939;" d="M440.888889-25.713778v41.699556c-94.663111 0-129.024 26.282667-129.024 78.848V382.350222h397.710222v-287.516444c0-52.565333-32.085333-78.848-121.400889-78.848v-41.699556h371.825778v41.699556c-94.435556 0-118.897778 26.282667-118.897778 78.848V674.474667c0 47.047111 30.492444 74.183111 118.897778 74.183111v41.756444h-371.825778v-41.756444c87.608889 0 121.400889-27.306667 121.400889-74.183111v-250.424889h-397.653333V674.474667c0 47.786667 32.483556 74.183111 128.967111 74.183111v41.756444H64v-41.756444c87.096889 0 116.337778-26.282667 116.337778-74.183111v-579.640889c0-52.565333-31.175111-78.848-116.337778-78.848v-41.699556H440.888889z"  horiz-adv-x="1024" />

    
    <glyph glyph-name="quot" unicode="&#58938;" d="M64.227556-20.536889V364.430222a417.962667 417.962667 0 0 0 23.893333 156.046222 404.992 404.992 0 0 0 74.296889 128.398223A409.144889 409.144889 0 0 0 276.878222 740.693333a406.755556 406.755556 0 0 0 144.668445 46.478223v-166.058667c-63.772444-21.788444-107.406222-54.044444-130.844445-96.824889-23.552-42.837333-35.271111-95.232-35.271111-157.297778h166.115556v-387.527111H64.227556z m535.950222 0V364.430222c-1.706667 55.409778 6.257778 107.406222 23.893333 156.046222a407.210667 407.210667 0 0 0 74.24 128.398223 410.567111 410.567111 0 0 0 259.242667 138.353777v-166.115555c-63.829333-21.788444-107.406222-54.044444-130.844445-96.824889-23.552-42.837333-35.271111-95.232-35.271111-157.297778h166.115556v-387.527111H600.177778z"  horiz-adv-x="1024" />

    
    <glyph glyph-name="ordered-list" unicode="&#58937;" d="M150.186667 658.318222h-54.385778V771.299556c0 6.485333-1.649778 11.093333-4.949333 13.824-3.242667 2.673778-9.557333 4.039111-18.887112 4.039111h-7.964444v21.048889c12.060444 2.104889 22.584889 5.688889 31.516444 10.808888 7.623111 4.323556 15.132444 10.353778 22.584889 18.090667h32.085334v-180.792889z m26.737777-235.178666c0-9.443556-2.446222-19.342222-7.281777-29.582223-4.039111-8.533333-11.036444-19.569778-21.048889-33.336889a5097.244444 5097.244444 0 0 0-30.151111-41.244444h53.703111v-30.435556H64v25.258667c15.246222 22.528 25.656889 38.001778 31.175111 46.421333 6.599111 9.784889 14.108444 21.617778 22.584889 35.328a152.462222 152.462222 0 0 1 10.524444 20.252445 36.010667 36.010667 0 0 1 2.218667 12.515555c0 9.102222-3.754667 13.653333-11.150222 13.653334-4.266667 0-7.111111-1.706667-8.590222-5.12a37.546667 37.546667 0 0 1-2.275556-14.449778v-16.497778h-44.487111v5.916445c0 3.413333 0 6.826667 0.170667 10.069333 0.113778 3.242667 0.455111 6.599111 1.137777 10.069333a40.846222 40.846222 0 0 0 16.839112 27.875556c9.102222 6.314667 21.048889 9.500444 35.953777 9.500444 7.623111 0 14.392889-0.625778 20.309334-1.934222 5.973333-1.308444 11.491556-3.413333 16.554666-6.314667 14.677333-8.931556 21.959111-21.617778 21.959111-37.944888z m-2.161777-448.910223a108.088889 108.088889 0 0 0-2.446223-25.6 34.816 34.816 0 0 0-9.728-16.725333c-8.931556-8.760889-22.300444-13.141333-40.163555-13.141333-18.887111 0-33.166222 3.128889-42.894222 9.500444a31.459556 31.459556 0 0 0-14.620445 28.216889l-0.910222 21.048889v6.030222h46.876444v-27.306667c0-7.111111 2.616889-10.638222 7.907556-10.638222 4.039111 0 6.542222 1.706667 7.395556 5.063111 0.967111 3.356444 1.422222 9.671111 1.422222 18.944v12.174223c0 10.126222-2.161778 16.554667-6.371556 19.228444-3.242667 2.048-10.467556 3.072-21.617778 3.072v25.315556h2.730667c11.377778 0 18.432 0.910222 21.162667 2.787555 2.730667 1.877333 4.096 7.168 4.096 15.928889v9.898667a34.247111 34.247111 0 0 1-0.910222 10.126222c-1.251556 3.015111-3.640889 4.551111-7.338667 4.551111-5.688889 0-8.533333-3.413333-8.533333-10.353778v-14.961778h-46.819556v9.898667c0 16.213333 3.982222 27.306667 12.003556 33.28 8.021333 5.973333 21.959111 8.988444 41.870222 8.988445 18.659556 0 32.483556-3.697778 41.528889-11.036445 9.045333-7.338667 13.539556-19.000889 13.539555-35.043555 0-9.955556-1.934222-17.464889-5.802666-22.528a37.603556 37.603556 0 0 0-13.653334-10.126223c9.329778-3.242667 15.189333-7.964444 17.635556-14.051555 2.446222-6.200889 3.640889-17.066667 3.640889-32.540445zM294.684444 763.790222h665.144889v-113.038222H294.684444V763.790222z m0-332.117333h665.144889v-113.038222H294.684444V431.672889zM284.444444 99.555556h665.144889v-112.981334H284.444444V99.555556z"  horiz-adv-x="1024" />

    
    <glyph glyph-name="link" unicode="&#58936;" d="M890.424889 770.503111a211.285333 211.285333 0 0 1-297.984 0L402.545778 580.551111a211.399111 211.399111 0 0 1 0-297.984l3.470222-3.470222c6.883556-6.826667 14.165333-12.913778 21.617778-18.773333L500.394667 336.213333c-8.305778 4.835556-19.228444 17.863111-26.055111 24.632889l-3.470223 3.413334c-44.487111 44.657778-14.961778 103.992889 29.525334 148.593777l164.067555 171.975111c44.544 44.487111 105.244444 54.727111 149.788445 10.24l3.584-3.413333c44.487111-44.657778 44.487111-100.864 0-145.464889l-86.357334-83.626666c14.904889-36.807111 30.264889-87.267556 29.582223-126.350223l132.835555 132.721778a211.285333 211.285333 0 0 1 0 298.040889l-3.470222 3.527111z m-298.666667-258.503111l-73.955555-75.662222c8.135111-4.892444 10.808889-9.898667 17.749333-16.839111l3.584-3.584c30.435556-37.432889 50.403556-100.124444 5.916444-144.725334L352.654222 79.644444c-44.600889-44.430222-103.253333-38.4-141.425778-3.527111l-3.584 3.527111c-40.903111 41.073778-40.903111 111.843556 3.584 156.387556l71.509334 67.413333c-14.791111 36.636444-25.088 93.411556-24.462222 132.835556l-132.835556-132.835556a211.399111 211.399111 0 0 1 0-297.984l3.584-3.584a211.399111 211.399111 0 0 1 297.984 0l189.838222 189.895111a211.512889 211.512889 0 0 1 0 297.984l-3.470222 3.527112a203.207111 203.207111 0 0 1-21.617778 18.716444z"  horiz-adv-x="1024" />

    
    <glyph glyph-name="italic" unicode="&#58935;" d="M613.603556-64v45.795556c-99.953778-6.769778-140.174222 17.408-111.843556 86.584888L715.093333 704.739556c18.318222 44.714667 51.541333 84.821333 151.495111 81.464888v45.795556H416.768v-45.795556c96.256 3.413333 138.296889-26.737778 115.029333-81.464888L314.766222 68.380444c-25.6-57.230222-57.457778-86.584889-154.737778-86.584888v-45.795556h453.575112z"  horiz-adv-x="1024" />

    
    <glyph glyph-name="code" unicode="&#58934;" d="M515.697778 768h126.236444L512 50.176H389.518222L515.697778 768zM394.581333 578.787556L229.319111 395.946667l165.262222-178.289778-78.108444-87.438222L83.057778 395.946667l233.301333 265.784889 78.222222-82.944z m248.263111 0l160.938667-182.784-160.938667-178.289778 78.165334-87.438222 228.977778 265.671111-228.920889 265.784889L642.844444 578.787556z"  horiz-adv-x="1024" />

    
    <glyph glyph-name="bold" unicode="&#58933;" d="M643.640889-48.014222c181.816889 6.656 316.359111 82.204444 316.359111 240.014222s-85.504 224.881778-256.398222 233.130667c135.281778 5.290667 212.764444 63.374222 212.764444 191.886222 0 140.856889-129.137778 211.626667-354.531555 214.983111H64v-44.999111c94.549333 3.356444 138.183111-23.324444 130.901333-79.985778V81.92c7.281778-63.317333-36.408889-91.648-130.901333-84.992v-44.942222h579.640889zM534.414222 465.351111l-16.213333 0.113778h-174.08v232.106667c0 39.708444 68.608 60.871111 163.157333 60.871111 167.253333 3.299556 249.059556-28.103111 245.475556-151.438223 3.584-116.622222-74.524444-144.896-234.552889-141.539555l16.213333-0.113778z m19.683556-440.035555c-103.936 0-210.033778 27.420444-210.033778 72.362666V392.021333h261.404444c127.260444-3.356444 192.739556-69.973333 196.323556-200.021333 3.640889-133.347556-58.595556-169.984-247.694222-166.684444z"  horiz-adv-x="1024" />

    
    <glyph glyph-name="longtext" unicode="&#58932;" d="M694.780366 18.541638h-511.846446c-58.452864 0-109.637509 51.184645-109.637509 109.688693V786.311307C73.296411 844.815355 124.481056 896 182.882735 896h511.846446c58.504049 0 109.688693-51.184645 109.688694-109.688693V128.230331c0-58.504049-51.184645-109.688693-109.688694-109.688693z m-511.846446 804.315505c-21.907028 0-36.545836-14.587624-36.545836-36.545836V128.230331c0-21.958213 14.638808-36.545836 36.545836-36.545836h511.846446c21.958213 0 36.597021 14.587624 36.597021 36.545836V786.311307c0 21.958213-14.638808 36.545836-36.597021 36.545836h-511.846446zM841.06608-127.692892H292.622613C270.715585-127.692892 256.076777-113.054084 256.076777-91.147056c0 21.958213 14.638808 36.597021 36.545836 36.597021H841.117265c21.907028 0 36.545836 14.587624 36.545836 36.545836V676.622613c0 21.958213 14.638808 36.597021 36.545836 36.597021 21.958213 0 36.545836-14.638808 36.545837-36.597021v-694.626812c0-58.504049-51.184645-109.688693-109.637509-109.688693zM548.545836 603.530941H256.076777c-21.958213 0-36.545836 14.587624-36.545836 36.545836s14.587624 36.545836 36.545836 36.545836h292.469059c21.958213 0 36.597021-14.587624 36.597021-36.545836s-14.638808-36.545836-36.597021-36.545836z m73.142857-182.831551H256.076777c-21.958213 0-36.545836 14.638808-36.545836 36.597021 0 21.907028 14.587624 36.545836 36.545836 36.545836h365.611916c21.907028 0 36.545836-14.638808 36.545837-36.545836 0-21.958213-14.638808-36.597021-36.545837-36.597021zM621.688693 237.919024H256.076777c-21.958213 0-36.545836 14.638808-36.545836 36.545837 0 21.958213 14.587624 36.545836 36.545836 36.545836h365.611916c21.907028 0 36.545836-14.587624 36.545837-36.545836 0-21.907028-14.638808-36.545836-36.545837-36.545837z"  horiz-adv-x="1024" />

    
    <glyph glyph-name="theme" unicode="&#58928;" d="M844.6464-127.6416H174.5408A123.392 123.392 0 0 0 51.2-4.2496V772.2496A123.392 123.392 0 0 0 174.5408 895.6416h670.1056a123.392 123.392 0 0 0 123.3408-123.3408v-776.6016a123.392 123.392 0 0 0-123.392-123.3408zM174.5408 823.6544c-28.3648 0-51.4048-23.04-51.4048-51.3536v-776.6016c0-28.3648 23.04-51.3536 51.4048-51.3536h670.1056c28.3136 0 51.3536 23.04 51.3536 51.3536V772.3008c0 28.3648-23.04 51.4048-51.3536 51.4048H174.5408zM655.6672 555.008h-367.616a44.6464 44.6464 0 0 0 0 89.1904h367.616a44.6464 44.6464 0 0 0 0-89.2416z m-77.824-206.3872h-289.792a44.6464 44.6464 0 0 0 0 89.1904h289.8944a44.6464 44.6464 0 1 0-0.1536-89.1904z m152.064-211.5584h-441.856a44.6464 44.6464 0 0 0 0 89.1904h441.856a44.6464 44.6464 0 0 0 0-89.1904z"  horiz-adv-x="1024" />

    
    <glyph glyph-name="money1" unicode="&#58927;" d="M538.624 387.6352a40.8576 40.8576 0 0 0-32.0512 66.1504l163.3792 206.848a40.8064 40.8064 0 1 0 64.1024-50.688l-163.328-206.7968a40.7552 40.7552 0 0 0-32.1024-15.5136zM518.1952 63.488a40.8576 40.8576 0 0 0-40.8064 40.8576V405.5552a40.8576 40.8576 0 0 0 81.664 0v-301.2096c0-22.528-18.2784-40.8064-40.8576-40.8064zM711.168 362.8032H325.2736a40.8576 40.8576 0 0 0 0 81.664h385.9968a40.8576 40.8576 0 0 0 0-81.664z m0-159.744H325.2736a40.8576 40.8576 0 0 0 0 81.7152h385.9968a40.8576 40.8576 0 0 0 0-81.664zM255.5904 660.8384l142.9504-183.808h122.5216l-142.9504 183.808zM939.6736-125.3888H82.0224c-45.056 0-81.7152 36.6592-81.7152 81.664V813.9776C0.3072 859.0336 36.9664 895.6928 82.0224 895.6928h857.6512c45.056 0 81.7152-36.6592 81.7152-81.7152v-857.7024c0-45.056-36.6592-81.664-81.7152-81.664zM82.0224 813.9776v-857.7024h857.7536l-0.1024 857.7024H82.0224z"  horiz-adv-x="1024" />

    
    <glyph glyph-name="closeCho" unicode="&#58926;" d="M874.0352 673.6384L584.3968 384l289.6384-289.6384-72.3968-72.3968L512 311.6032l-289.6384-289.6384-72.3968 72.3968L439.6032 384 149.9648 673.6384 222.3616 745.984 512 456.3968l289.6384 289.6384 72.3968-72.3968z"  horiz-adv-x="1024" />

    
    <glyph glyph-name="xls" unicode="&#58925;" d="M607.744 844.6976l307.302-199.629v-666.624c0-28.4672-20.8384-55.2448-48.4352-55.2448H139.776c-27.136 0-43.776 23.6544-43.776 47.6672V797.2352c0 22.528 17.152 47.4624 43.776 47.4624h467.968ZM512 332.79999999999995H459.366v-256.666H614.4V128h-102.4v204.8Zm-291.328 0H160.307L261.12 209.101 153.6 76.79999999999995h60.2624l77.568 98.9696L368.998 76.79999999999995h60.3136l-108.339 132.301L422.554 332.79999999999995H362.291l-70.8608-90.368L220.672 332.79999999999995Zm538.112 0c-28.672 0-52.224-5.888-70.8608-17.92-20.1728-12.4416-29.8496-29.696-29.8496-51.4048 0-21.76 10.0352-38.2976 30.5664-49.664 7.8336-4.1984 28.3648-11.0592 61.2352-20.736 29.4912-8.2944 46.592-13.824 51.8656-16.2304 16.384-7.5776 24.9856-17.92 24.9856-31.0272 0-10.3424-5.9392-18.2784-17.152-24.5248-11.2128-5.8368-26.88-8.96-46.2848-8.96-22.016 0-38.0416 3.7888-48.4864 10.7008-11.5712 7.936-18.688 21.4016-21.6576 40.0384h-43.3152c1.8944-31.4368 14.1824-54.1696 36.608-68.6592 18.2784-11.776 44.032-17.6128 76.8512-17.6128 33.9456 0 60.416 6.5536 79.104 18.944A60.416 60.416 0 0 1 870.4 148.27499999999998c0 22.784-11.5712 40.3456-34.7136 53.1456-10.4448 5.4784-33.5872 13.824-69.7856 24.1152-24.576 7.2704-39.936 12.4416-45.568 15.2064-12.6464 6.1952-18.6368 14.848-18.6368 25.1904a26.112 26.112 0 0 0 16.4352 25.4976c8.96 4.5056 21.6576 6.5536 38.4 6.5536 19.456 0 34.3552-3.072 44.0832-9.984 9.728-6.5536 16.7936-17.6128 20.48-32.768h43.3152c-2.56 26.88-13.4144 46.8992-32.0512 59.6992-17.5616 12.032-42.1888 17.92-73.5232 17.92Z"  horiz-adv-x="1024" />

    
    <glyph glyph-name="txt" unicode="&#58924;" d="M607.744 844.6976l307.302-199.629v-686.694c0-17.5616-17.6128-35.1744-35.1744-35.1744H131.226c-17.6128 0-35.2256 17.6128-35.2256 35.1744V797.184c0 23.9616 20.6848 47.5648 46.4384 47.5648h465.254ZM715.981 537.6H307.2v-101.888L460.032 435.2l2.2528-358.4h99.328V435.712h154.419V537.6Z"  horiz-adv-x="1024" />

    
    <glyph glyph-name="TIFF" unicode="&#58923;" d="M614.502 844.1344l306.995-259.942v-611.738a44.9024 44.9024 0 0 0-14.0288-32.1024 45.4144 45.4144 0 0 0-32.768-13.7728H148.992a46.6944 46.6944 0 0 0-32.768 13.7728 43.52 43.52 0 0 0-14.0288 32.1024V798.3104a48.128 48.128 0 0 0 14.0288 32.0512 45.4144 45.4144 0 0 0 32.768 13.824h465.459ZM384.307 314.419H153.6v-39.424h92.3136v-242.176h46.08v242.176h92.3136v39.424Zm63.3344 0h-46.1312v-281.6h46.1312v281.6Zm215.45 0H471.04v-281.6h46.1312v124.621h137.677v39.424H517.12v78.1312h145.92v39.424Zm204.8 0H675.84v-281.6h46.1312v124.621h137.677v39.424H721.92v78.1312h145.92v39.424Z"  horiz-adv-x="1024" />

    
    <glyph glyph-name="swf" unicode="&#58922;" d="M655.514 844.8l294.758-256v-609.126c0-28.7744-26.2144-56.4736-59.904-56.4736H224.666c-35.1744 0-71.0656 35.2768-70.3488 65.536V778.854C154.317 810.3936 176.64 844.8 209.971 844.8h445.542Zm69.5296-359.27s-154.522 25.3952-230.707-196.864C441.344 151.091 392.704 144.74199999999996 346.112 144.74199999999996v-80.4352h8.448c31.744-2.0992 146.074 0 215.91 169.318h112.179v80.4352h-78.336s31.744 93.184 120.678 91.0336Z"  horiz-adv-x="1024" />

    
    <glyph glyph-name="ppt" unicode="&#58921;" d="M614.502 844.1344l306.995-259.942v-611.738a44.9024 44.9024 0 0 0-14.0288-32.1024 45.4144 45.4144 0 0 0-32.768-13.7728H148.992a46.6944 46.6944 0 0 0-32.768 13.7728 43.52 43.52 0 0 0-14.0288 32.1024V798.3104a48.128 48.128 0 0 0 14.0288 32.0512 45.4144 45.4144 0 0 0 32.768 13.824h465.459ZM288.41 332.79999999999995H179.2v-281.6h43.1616v92.3136H287.744c64.2048 0 96.3072 31.7952 96.3072 95.0784 0 62.8224-32.1024 94.208-95.5904 94.208Zm230.4 0H409.6v-281.6h43.1616v92.3136h65.3312c64.2048 0 96.3072 31.7952 96.3072 95.0784 0 62.8224-32.1024 94.208-95.5904 94.208Zm325.99 0h-204.8v-51.2H716.8v-230.4h51.2V281.6h76.8v51.2ZM284.774 281.6c16.384 0 28.5184-3.84 36.1984-11.9296 7.68-7.68 11.8272-20.48 11.8272-38.8608 0-18.3296-3.84-31.5392-11.52-39.68-7.68-7.68-19.8656-11.9296-36.5056-11.9296H230.4v102.4h54.4256Zm230.4 0c16.384 0 28.5184-3.84 36.1984-11.9296 7.68-7.68 11.8272-20.48 11.8272-38.8608 0-18.3296-3.84-31.5392-11.52-39.68-7.68-7.68-19.8656-11.9296-36.5056-11.9296H460.8v102.4h54.4256Z"  horiz-adv-x="1024" />

    
    <glyph glyph-name="PNG" unicode="&#58920;" d="M614.502 844.1344l306.995-259.942v-611.738a44.9024 44.9024 0 0 0-14.0288-32.1024 45.4144 45.4144 0 0 0-32.768-13.7728H148.992a46.6944 46.6944 0 0 0-32.768 13.7728 43.52 43.52 0 0 0-14.0288 32.1024V798.3104a48.128 48.128 0 0 0 14.0288 32.0512 45.4144 45.4144 0 0 0 32.768 13.824h465.459Zm126.874-506.419c-37.9904 0-68.096-13.6704-90.3168-41.728-21.1456-26.2144-31.5392-59.5968-31.5392-100.198 0-40.2432 10.3936-73.216 31.5392-98.6624 22.5792-27.3408 54.1184-41.0112 94.976-41.0112 22.9376 0 43.3664 3.072 62.0032 9.1136a145.408 145.408 0 0 1 46.592 25.8048v114.586H744.96v-37.888h67.7376v-55.808a115.302 115.302 0 0 0-27.5968-12.544c-10.752-3.072-22.2208-4.5568-34.4064-4.5568-31.1808 0-54.1184 9.1136-68.8128 27.3408-13.6192 17.0496-20.4288 41.728-20.4288 73.6256 0 33.3824 7.5264 58.8288 22.9376 77.0048 13.9776 17.4592 32.9728 25.856 56.9856 25.856 19.3536 0 35.1232-4.1984 46.9504-12.9024 11.4688-8.7552 19.3536-21.6576 22.9376-39.1168h42.2912c-4.6592 30.3616-16.128 52.736-34.4064 67.9424-18.9952 15.5648-44.8 23.1424-77.7728 23.1424Zm-466.33-5.3248H168.96V61.440000000000055h41.9328v103.936h63.4368c62.3616 0 93.5424 28.16 93.5424 83.9168 0 55.3984-31.1808 83.0976-92.8256 83.0976Zm154.726 0h-41.9328V61.440000000000055h41.9328v198.093h1.4336l127.949-198.144h40.8576v271.002h-42.2912v-195.43h-1.4336l-126.515 195.43Zm-153.805-37.9392c18.2784 0 31.8976-3.4304 40.4992-10.6496 8.6016-6.8096 13.2608-18.176 13.2608-34.5088 0-16.3328-4.3008-28.1088-12.9024-35.328-8.6016-6.8096-22.2208-10.5984-40.8576-10.5984H215.04v91.0848h60.928Z"  horiz-adv-x="1024" />

    
    <glyph glyph-name="mp1" unicode="&#58918;" d="M614.502 844.1344l306.995-259.942v-611.738a44.9024 44.9024 0 0 0-14.0288-32.1024 45.4144 45.4144 0 0 0-32.768-13.7728H148.992a46.6944 46.6944 0 0 0-32.768 13.7728 43.52 43.52 0 0 0-14.0288 32.1024V798.3104a48.128 48.128 0 0 0 14.0288 32.0512 45.4144 45.4144 0 0 0 32.768 13.824h465.459Zm234.547-485.734h-37.0176l-120.832-177.459v-43.776h119.45V76.79999999999995h38.4v60.3648h36.7104v36.6592h-36.7104V358.4Zm-619.878 0H179.2v-269.824h42.7008v185.907h1.4336L300.032 88.57600000000002h36.864l76.5952 185.907h1.4848v-185.907h42.6496V358.4h-49.9712l-88.2688-211.61h-1.4848L229.171 358.4Zm373.043 0H494.234v-269.824h42.7008v103.526h64.5632l9.3184 0.2048c57.2928 2.6624 85.9136 30.5664 85.9136 83.3536 0 55.1424-31.744 82.7392-94.5152 82.7392Zm208.384-58.368v-126.208h-86.528l85.504 126.208h1.024Zm-210.022 20.5824c18.5856 0 32.4608-3.4304 41.216-10.5984 8.7552-6.8096 13.5168-18.1248 13.5168-34.3552 0-16.2816-4.4032-28.0064-13.1584-35.1744-8.704-6.8096-22.6304-10.5984-41.5744-10.5984h-62.0544v90.7264Z"  horiz-adv-x="1024" />

    
    <glyph glyph-name="mp" unicode="&#58917;" d="M665.702 844.1344l306.995-259.942v-611.738a44.9024 44.9024 0 0 0-14.0288-32.1024 45.4144 45.4144 0 0 0-32.768-13.7728H200.192a46.6944 46.6944 0 0 0-32.768 13.7728 43.52 43.52 0 0 0-14.0288 32.1024V798.3104a48.128 48.128 0 0 0 14.0288 32.0512 45.4144 45.4144 0 0 0 32.768 13.824h465.459Zm168.346-473.856c-25.5488 0-46.6944-7.168-63.1296-22.272-17.5104-15.1552-26.9824-36.3008-29.184-63.488h41.984c1.4336 16.2304 6.5536 28.3136 15.3088 36.2496 8.3968 7.936 20.0704 11.7248 35.3792 11.7248 14.9504 0 26.2656-3.4304 33.9456-10.24 6.912-6.7584 10.5472-16.5888 10.5472-29.7984 0-13.2608-3.9936-23.4496-11.6736-30.208-7.9872-6.8608-19.6608-10.24-35.0208-10.24h-18.2272v-33.28h18.2272c16.7936 0 29.5936-3.3792 38.3488-10.9568 8.704-7.168 13.4656-18.4832 13.4656-33.9968a44.3904 44.3904 0 0 0-12.8-32.1024c-9.4208-9.472-22.5792-14.336-39.0144-14.336-14.9504 0-26.9824 4.5056-36.096 13.1584-10.24 9.472-15.36 23.04-16.0768 40.448h-43.4176c2.2016-30.208 12.3904-53.6576 30.6688-69.5296 16.384-14.336 38.2976-21.504 65.28-21.504 28.4672 0 51.456 8.2944 68.9664 24.576 16.7936 15.872 25.1904 36.2496 25.1904 61.184 0 15.872-4.4032 29.0816-13.1584 39.2704-7.9872 9.8304-20.0704 17.0496-35.328 21.9648 28.7744 9.7792 43.3664 29.44 43.3664 58.9312 0 23.4496-8.0384 41.5744-23.7056 54.784-16.0768 13.2608-37.5808 19.6608-63.8464 19.6608Zm-574.157-5.2736H209.92v-269.824h42.7008V281.08799999999996h1.4336L330.752 95.23199999999997h36.864l76.5952 185.907h1.4848v-185.907h42.6496v269.824h-49.9712l-88.2688-211.661h-1.4848L259.891 365.05600000000004Zm373.043 0h-107.981v-269.824h42.7008V198.65599999999995h64.5632c63.488 0 95.232 27.9552 95.232 83.5072 0 55.1936-31.744 82.7904-94.5152 82.7904Zm-1.6384-37.7856c18.5856 0 32.4608-3.4304 41.216-10.5984 8.7552-6.8096 13.5168-18.1248 13.5168-34.4064 0-16.2304-4.4032-27.9552-13.1584-35.1232-8.704-6.8096-22.6304-10.5984-41.5744-10.5984h-62.0544v90.7264h62.0544Z"  horiz-adv-x="1024" />

    
    <glyph glyph-name="jpg" unicode="&#58916;" d="M614.502 844.1344l306.995-259.942v-611.738a44.9024 44.9024 0 0 0-14.0288-32.1024 45.4144 45.4144 0 0 0-32.768-13.7728H148.992a46.6944 46.6944 0 0 0-32.768 13.7728 43.52 43.52 0 0 0-14.0288 32.1024V798.3104a48.128 48.128 0 0 0 14.0288 32.0512 45.4144 45.4144 0 0 0 32.768 13.824h465.459Zm-283.853-516.608H286.208v-181.811c0-19.3536-3.4304-33.4336-10.24-42.1376-6.8608-8.704-17.8688-13.312-32.6656-13.312-26.9312 0-40.2432 15.5648-40.2432 46.6944v8.3456H158.72v-8.704c0-26.624 7.168-47.4624 21.6576-62.6176 14.0288-15.2064 34.8672-22.784 62.208-22.784 31.488 0 54.272 7.9872 68.7104 23.9104 12.9024 15.1552 19.3536 37.9392 19.3536 69.0688v183.296Zm419.328 5.2736c-40.192 0-72.0896-13.6704-95.5904-41.728-22.4256-26.2144-33.4336-59.5968-33.4336-100.198 0-40.2432 11.008-73.216 33.4336-98.6624 23.9104-27.3408 57.2928-41.0112 100.557-41.0112 24.2688 0 45.9264 3.072 65.6384 9.1136 18.5856 6.0416 34.9184 14.4384 49.3568 25.8048V200.70399999999995h-116.122v-37.888h71.68v-55.808a125.696 125.696 0 0 0-29.184-12.544c-11.4176-3.072-23.552-4.5568-36.4544-4.5568-33.024 0-57.2928 9.1136-72.8576 27.3408-14.4384 17.0496-21.6064 41.728-21.6064 73.6256 0 33.3824 7.936 58.8288 24.2688 77.0048 14.7968 17.4592 34.9184 25.856 60.3648 25.856 20.48 0 37.1712-4.1984 49.664-12.9024 12.1856-8.7552 20.48-21.6576 24.32-39.1168h44.8c-4.9664 30.3616-17.1008 52.736-36.4544 67.9424-20.1216 15.5648-47.4624 23.1424-82.3296 23.1424Zm-253.85-5.3248H383.795v-270.95h44.3904v103.936h67.1744c66.048 0 99.0208 28.16 99.0208 83.9168 0 55.3984-32.9728 83.0976-98.304 83.0976Zm-3.4304-37.9392c19.3536 0 33.792-3.4304 42.9056-10.6496 9.0624-6.8096 14.0288-18.176 14.0288-34.5088 0-16.3328-4.608-28.1088-13.6704-35.328-9.1136-6.8096-23.552-10.5984-43.264-10.5984h-64.512v91.0848h64.512Z"  horiz-adv-x="1024" />

    
    <glyph glyph-name="doubt" unicode="&#58915;" d="M614.502 844.8l306.995-259.994v-611.686a44.9024 44.9024 0 0 0-14.0288-32.1536 45.4144 45.4144 0 0 0-32.768-13.7216H148.992a46.6944 46.6944 0 0 0-32.768 13.7216 43.52 43.52 0 0 0-14.0288 32.1536V798.9248a48.128 48.128 0 0 0 14.0288 32.1024 45.4144 45.4144 0 0 0 32.768 13.7728h465.459ZM508.109 126.61800000000005a47.36 47.36 0 0 1-33.792-12.9024 43.1104 43.1104 0 0 1-13.5168-33.1776c0-13.5168 4.3008-24.576 13.5168-33.1776 9.216-8.6016 20.2752-13.5168 33.792-13.5168s24.576 4.3008 33.792 12.9024a44.9536 44.9536 0 0 1 14.1312 33.792 45.3632 45.3632 0 0 1-13.5168 33.1776 48.8448 48.8448 0 0 1-34.4064 12.9024ZM519.373 537.6c-49.664 0-88.576-14.08-117.35-42.24-29.5424-28.16-43.6224-67.072-43.6224-116.736h76.4416c0 28.16 5.376 50.3296 16.7936 65.7408 12.7488 18.7904 33.536 27.4944 63.0272 27.4944 22.8352 0 40.96-6.0416 53.6576-18.7904 12.0832-12.7488 18.7904-30.208 18.7904-52.2752 0-16.7936-6.0416-32.8704-18.0736-47.616l-8.0896-9.4208c-43.5712-38.912-69.7344-67.072-78.4384-85.1968-9.4208-18.0736-13.4144-40.2432-13.4144-65.7408v-9.3696h77.1072v9.3696c0 16.128 3.3792 30.208 10.0864 43.6224a103.936 103.936 0 0 0 26.8288 33.536c32.1536 28.16 51.6096 46.2848 57.6512 52.992 16.128 21.504 24.832 48.9472 24.832 82.4832 0 40.96-13.4144 73.1136-40.2432 96.6144C598.528 526.182 562.995 537.6 519.373 537.6Z"  horiz-adv-x="1024" />

    
    <glyph glyph-name="wepay" unicode="&#58914;" d="M435.785143 266.24a35.035429 35.035429 0 0 0-16.457143-3.730286 36.059429 36.059429 0 0 0-31.817143 18.797715l-2.633143 4.973714L284.525714 502.125714c-1.243429 2.56-1.243429 4.973714-1.243428 7.533715 0 10.093714 7.606857 17.554286 17.773714 17.554285 3.876571 0 7.68-1.170286 11.483429-3.657143l118.198857-82.870857c8.850286-4.973714 19.017143-8.777143 30.500571-8.777143a50.761143 50.761143 0 0 1 19.017143 3.803429l554.496 243.419429C935.570286 794.550857 771.657143 869.888 585.874286 869.888 283.282286 869.888 36.571429 667.794286 36.571429 418.230857c0-135.460571 73.728-258.486857 189.44-341.284571 8.777143-6.363429 15.213714-17.554286 15.213714-28.891429a34.157714 34.157714 0 0 0-2.56-11.264c-8.850286-33.865143-24.210286-89.161143-24.210286-91.574857a45.348571 45.348571 0 0 1-2.633143-13.897143c0-10.020571 7.68-17.554286 17.846857-17.554286a14.555429 14.555429 0 0 1 10.24 3.803429l119.442286 68.973714a61.293714 61.293714 0 0 0 29.257143 8.777143c5.046857 0 11.410286-1.243429 16.457143-2.56 55.954286-16.237714 117.028571-25.088 179.346286-25.088 302.592 0 549.302857 202.020571 549.302857 451.657143 0 75.337143-22.893714 146.724571-62.317715 209.554286L439.588571 268.8l-3.803428-2.56z"  horiz-adv-x="1170" />

    
    <glyph glyph-name="close" unicode="&#58913;" d="M745.984 149.12a40.96 40.96 0 0 0-57.984 0L511.744 325.76 336 149.632a41.152 41.152 0 1 0-58.432 57.92L453.76 384.256 277.568 561.024a41.152 41.152 0 1 0 58.432 57.92l176.256-176.768 176.256 176.768a40.96 40.96 0 0 0 57.92-57.92L569.728 384.256l176.256-176.768a40.96 40.96 0 0 0 0-58.432zM1022.528 896H0v-941.696a82.304 82.304 0 0 1 82.304-80.832h859.392a82.304 82.304 0 0 1 80.832 80.832V896z"  horiz-adv-x="1024" />

    
    <glyph glyph-name="keyboard" unicode="&#58912;" d="M897.841516 895.829381c39.413063 0.426548 70.252505-10.365124 92.518326-32.417671 22.223166-22.009892 33.356077-53.318537 33.356077-93.755316v-771.924458c-5.161234-44.744917-17.48848-75.285775-36.981738-91.66523-29.175904-24.526527-54.896766-33.782625-91.110717-33.782625-22.180512 0-274.483831-0.639822-767.189771 0-40.223505 0.042655-57.072162 4.905305-90.940097 33.782625-22.60706 19.279983-35.104925 49.863496-37.536251 91.707885V769.613739C4.009554 808.13105 16.507419 837.349609 37.53625 857.397379s51.31376 32.844219 90.940098 38.389347zM897.244348 832.017755H127.239358c-18.89609-2.47398-33.398732-9.384063-43.550582-20.687592a75.072501 75.072501 0 0 1-18.426886-41.929698L63.982245 0.035297c0.170619-20.13308 6.739463-34.763686 19.706531-43.80651 12.924413-9.000169 27.55502-12.796449 43.806511-11.431495h768.128177c18.640161 0 32.844219 4.393447 42.569521 13.137688 9.725301 8.74424 14.076094 22.777679 13.009723 42.100317V769.400465c-1.407609 15.782287-6.18495 28.919975-14.417333 39.413063-8.189727 10.535743-21.37007 18.256267-39.541027 23.204227zM202.183894 584.96098h87.101163v-87.143818H202.141239V584.96098z m174.202325 0h87.143818v-87.143818H376.386219V584.96098z m174.244981 0h87.143817v-87.143818h-87.143817V584.96098z m152.491017 0h130.694399v-87.143818h-130.694399V584.96098z m43.550581-304.982034h-130.694399v-87.101163h217.838217v239.59218h-87.143818v-152.448362zM289.285057 432.512618h108.897781v-87.101163H289.285057v87.101163zM202.141239 280.064256h108.897781v-87.143818H202.183894V280.064256z m174.24498 0h174.244981v-87.143818H376.386219V280.064256z m65.3472 152.448362H528.919891v-87.101163h-87.143817v87.101163zM594.181781 432.469963h87.143818v-87.101163h-87.101163z"  horiz-adv-x="1024" />

    
    <glyph glyph-name="choice-item" unicode="&#58911;" d="M736.938667 298.666667a58.197333 58.197333 0 0 0 46.506666-93.013334l-232.704-310.357333a58.197333 58.197333 0 0 0-93.013333 0L224.853333 205.568A58.197333 58.197333 0 0 0 271.530667 298.666667zM504.234667 896c18.261333 0 35.498667-8.618667 46.506666-23.296l232.704-310.272A58.197333 58.197333 0 0 0 736.938667 469.333333H271.530667a58.197333 58.197333 0 0 0-46.592 93.013334L457.642667 872.789333A58.197333 58.197333 0 0 0 504.32 896z"  horiz-adv-x="1024" />

    
    <glyph glyph-name="up-menu" unicode="&#58910;" d="M541.056 526.528l174.528-232.704a43.648 43.648 0 0 0-34.88-69.824H331.648a43.648 43.648 0 0 0-34.944 69.76l174.528 232.768a43.648 43.648 0 0 0 69.824 0z"  horiz-adv-x="1024" />

    
    <glyph glyph-name="reward" unicode="&#58909;" d="M512.284444 839.111111a455.111111 455.111111 0 1 0-0.568888-910.222222 455.111111 455.111111 0 0 0 0.568888 910.222222z m0-85.333333a369.777778 369.777778 0 1 1-0.568888-739.555556 369.777778 369.777778 0 0 1 0.568888 739.555556zM680.391111 312.945778c9.216 0 18.147556-3.754667 24.689778-10.467556a35.84 35.84 0 0 0 10.069333-25.258666 36.408889 36.408889 0 0 0-10.069333-26.396445 35.100444 35.100444 0 0 0-25.6-10.808889H555.690667v-73.386666a39.537778 39.537778 0 0 0-18.204445-36.864 38.058667 38.058667 0 0 0-40.561778 0 39.537778 39.537778 0 0 0-18.204444 36.920888v73.272889H352.426667a35.726222 35.726222 0 0 0-35.441778 36.067556c0 19.911111 15.872 36.010667 35.441778 36.010667h126.407111V353.848889H352.369778a35.726222 35.726222 0 0 0-35.441778 36.010667c0 19.911111 15.872 36.067556 35.441778 36.067555h95.687111L340.935111 585.841778a36.977778 36.977778 0 0 0-3.072 36.238222 35.441778 35.441778 0 1 0 61.610667 5.461333l117.020444-173.681777 117.020445 173.397333a35.271111 35.271111 0 0 0 62.008889-3.982222 36.579556 36.579556 0 0 0-3.470223-36.522667l-108.259555-158.492444h95.345778c19.569778 0 35.441778-16.156444 35.441777-36.067556 0-19.911111-15.872-36.010667-35.441777-36.010667h-122.88v-42.040889l124.074666-1.137777z"  horiz-adv-x="1024" />

    
    <glyph glyph-name="review" unicode="&#58908;" d="M510.336-37.12a30.08 30.08 0 0 0-23.424 9.344l-124.352 114.944H99.776a36.096 36.096 0 0 0-35.2 35.2V732.352c0 18.816 16.448 35.2 35.2 35.2h821.12c18.816 0 35.2-16.384 35.2-35.2v-609.984c0-18.752-16.384-35.2-35.2-35.2h-262.72L533.76-27.776a30.08 30.08 0 0 0-23.488-9.408zM135.04 157.504h241.664a30.08 30.08 0 0 0 23.424-9.408l110.272-103.232 110.272 103.232a30.08 30.08 0 0 0 23.488 9.408h241.664V697.152H134.976v-539.584zM280.448 439.04a46.912 46.912 0 1 1 93.824 0 46.912 46.912 0 0 1-93.824 0zM463.424 439.04a46.912 46.912 0 1 1 93.888 0 46.912 46.912 0 0 1-93.888 0zM644.096 439.04a46.912 46.912 0 1 1 93.824 0 46.912 46.912 0 0 1-93.824 0z"  horiz-adv-x="1024" />

    
    <glyph glyph-name="like" unicode="&#58907;" d="M510.976-6.4c-18.56 0-35.84 7.68-48.896 21.632L139.392 361.088c-56.96 61.056-83.52 145.472-72.768 231.68 10.688 85.376 57.472 159.552 128.448 203.52C294.464 857.664 423.744 836.48 509.44 744.576l1.6-1.728 1.664 1.728C598.272 836.48 727.552 857.664 826.88 796.224c71.04-43.904 117.76-118.08 128.512-203.52 10.688-86.144-15.808-170.56-72.768-231.616l-322.752-345.856a66.368 66.368 0 0 0-48.896-21.632zM318.144 758.4c-30.72 0-61.184-8.192-88.448-25.024a204.8 204.8 0 0 1-94.912-150.208c-7.936-63.68 11.52-125.952 53.44-170.88l322.752-345.856 322.816 345.856c41.92 44.928 61.44 107.2 53.44 170.88a204.8 204.8 0 0 1-94.976 150.144c-72.32 44.8-167.168 28.352-230.784-39.872l-26.048-27.84a33.92 33.92 0 0 0-48.832 0l-26.048 27.84C420.864 736 369.024 758.4 318.08 758.4z m542.72-375.104h1.28-1.28z"  horiz-adv-x="1024" />

    
    <glyph glyph-name="word" unicode="&#58906;" d="M614.093 844.6976H137.626c-17.6128 0-35.2256-17.6128-35.2256-35.2256v-851.098c0-17.5616 17.6128-35.1744 35.2256-35.1744H886.272c17.5616 0 35.1744 17.6128 35.1744 35.1744V645.12l-307.354 199.629Zm153.395-738.253h-101.786c-51.2 41.6768-101.274 84.7872-152.422 126.925-51.712-42.1376-102.912-84.7872-155.136-126.925H256.358c0 168.602-1.024 262.144 0.512 430.694h101.274c0.512-118.067 0-160.666 0-278.784 51.2 41.216 101.786 82.944 153.498 123.648 51.2-40.7552 101.786-82.8928 153.498-123.648 0.512 118.118 0 160.717 0 278.784 34.4576-0.9216 68.9664 2.3552 102.912-1.8432-1.6384-168.09 0.512-260.71-0.5632-428.851Z"  horiz-adv-x="1024" />

    
    <glyph glyph-name="rar" unicode="&#58905;" d="M588.39 845.7216l307.61-261.12v-614.4c0-11.52-7.5264-23.04-15.0528-30.72-7.5264-11.52-18.7904-15.36-30.1056-15.36H173.158c-11.264 0-22.5792 3.84-30.1056 15.36-11.264 7.68-15.0528 19.2-15.0528 30.72v829.44c0 11.52 7.5264 19.2 15.0528 30.72 7.5264 11.52 18.7904 15.36 30.1056 15.36h415.232ZM391.27 320.51199999999994H278.528v-221.901c0-22.5792 18.7904-37.632 41.3696-37.632h139.162c22.5792 0 41.3696 18.7904 41.3696 37.632v131.635c3.7888 22.5792-15.0016 37.632-37.5808 37.632H391.322V320.51199999999994Zm56.4736-154.214v-52.6336H334.848v52.6336h112.845Zm56.4224 206.899H391.322v-52.6848h112.845V373.24800000000004ZM391.322 425.882H278.477v-52.6848h112.845V425.882Zm112.845 52.6336H391.322v-52.6336h112.845V478.515ZM391.322 531.2H278.477v-52.6848h112.845V531.2Zm0 101.53H278.477V580.096h112.794v-48.896h112.896V583.8340000000001H391.27v48.896Zm112.845 52.6848H391.322v-52.6848h112.845V685.414ZM391.322 738.0989999999999H278.477v-52.6848h112.845V738.0989999999999Z"  horiz-adv-x="1024" />

    
    <glyph glyph-name="pdf" unicode="&#58904;" d="M614.502 844.1344l306.995-259.942v-611.738a44.9024 44.9024 0 0 0-14.0288-32.1024 45.4144 45.4144 0 0 0-32.768-13.7728H148.992a46.6944 46.6944 0 0 0-32.768 13.7728 43.52 43.52 0 0 0-14.0288 32.1024V798.3104a48.128 48.128 0 0 0 14.0288 32.0512 45.4144 45.4144 0 0 0 32.768 13.824h465.459ZM264.602 332.79999999999995H143.36v-292.454h47.9232V152.57600000000002h72.4992c71.2704 0 106.906 30.3104 106.906 90.5216C370.688 302.899 335.053 332.79999999999995 264.602 332.79999999999995Zm241.664 0H399.36v-292.454h106.906c47.5136 0 83.1488 13.1072 107.725 39.3216 23.3472 24.9856 35.2256 60.6208 35.2256 106.906 0 46.6944-11.8784 82.3296-35.2256 106.906-24.576 26.2144-60.2112 39.3216-107.725 39.3216Zm374.17 0H680.96v-292.454h47.9232v129.434h142.95v40.96h-142.95V291.84000000000003h151.552V332.79999999999995Zm-379.904-40.96c36.4544 0 63.0784-8.192 79.872-24.9856 16.384-16.384 24.576-43.4176 24.576-80.2816 0-36.0448-8.192-62.6688-24.576-79.872-16.7936-16.7936-43.4176-25.3952-79.872-25.3952H450.56V291.84000000000003h49.9712Zm-239.616 0c20.8896 0 36.4544-3.6864 46.2848-11.4688 9.8304-7.3728 15.1552-19.6608 15.1552-37.2736s-4.9152-30.3104-14.7456-38.0928c-9.8304-7.3728-25.3952-11.4688-46.6944-11.4688h-69.632V291.84000000000003h69.632Z"  horiz-adv-x="1024" />

    
    <glyph glyph-name="picture" unicode="&#58903;" d="M896 896H128C55.466667 896 0 840.533333 0 768v-768c0-72.533333 55.466667-128 128-128h768c72.533333 0 128 55.466667 128 128V768c0 72.533333-55.466667 128-128 128z m-21.333333-960h-725.333334c-46.933333 0-85.333333 38.4-85.333333 85.333333V128L213.333333 256l128-128 298.666667 298.666667 320-341.333334v-64c0-46.933333-38.4-85.333333-85.333333-85.333333z m85.333333 234.666667L640 512l-298.666667-298.666667-128 128-149.333333-128V746.666667c0 46.933333 38.4 85.333333 85.333333 85.333333h725.333334c46.933333 0 85.333333-38.4 85.333333-85.333333V170.666667zM328.533333 465.066667c76.8 0 140.8 64 140.8 140.8S405.333333 746.666667 328.533333 746.666667 187.733333 682.666667 187.733333 605.866667s64-140.8 140.8-140.8z m0 221.866666c42.666667 0 81.066667-34.133333 81.066667-81.066666s-38.4-81.066667-81.066667-81.066667-81.066667 38.4-81.066666 81.066667c0 21.333333 8.533333 42.666667 21.333333 55.466666s38.4 25.6 59.733333 25.6z"  horiz-adv-x="1024" />

    
    <glyph glyph-name="label" unicode="&#58902;" d="M512 896C230.4 896 0 665.6 0 384s230.4-512 512-512 512 230.4 512 512S793.6 896 512 896z m0-960C264.533333-64 64 136.533333 64 384S264.533333 832 512 832 960 631.466667 960 384 759.466667-64 512-64zM256 524.8c0-42.666667 34.133333-76.8 76.8-76.8s72.533333 34.133333 72.533333 76.8S371.2 597.333333 332.8 597.333333C290.133333 597.333333 256 563.2 256 524.8m362.666667 0c0-42.666667 34.133333-76.8 76.8-76.8S768 482.133333 768 524.8 733.866667 597.333333 695.466667 597.333333c-42.666667 0-76.8-34.133333-76.8-72.533333M810.666667 341.333333c0-166.4-128-298.666667-298.666667-298.666666s-298.666667 132.266667-298.666667 298.666666h597.333334z m-64-51.2h-469.333334c0-85.333333 110.933333-196.266667 234.666667-196.266666s234.666667 110.933333 234.666667 196.266666z"  horiz-adv-x="1024" />

    
    <glyph glyph-name="enclosure" unicode="&#58901;" d="M896 896H128C55.466667 896 0 840.533333 0 768v-768c0-72.533333 55.466667-128 128-128h768c72.533333 0 128 55.466667 128 128V768c0 72.533333-55.466667 128-128 128z m-21.333333-960h-725.333334c-46.933333 0-85.333333 38.4-85.333333 85.333333v725.333334c0 46.933333 38.4 85.333333 85.333333 85.333333h725.333334c46.933333 0 85.333333-38.4 85.333333-85.333333v-725.333334c0-46.933333-38.4-85.333333-85.333333-85.333333zM256 132.266667c-21.333333 21.333333-38.4 51.2-34.133333 81.066666 0 29.866667 12.8 59.733333 38.4 81.066667l290.133333 256c29.866667 25.6 81.066667 25.6 110.933333 0 29.866667-29.866667 29.866667-72.533333 0-102.4L443.733333 256c-12.8-8.533333-29.866667-8.533333-42.666666 0-4.266667 4.266667-8.533333 12.8-8.533334 17.066667 0 8.533333 4.266667 12.8 8.533334 17.066666l217.6 192c8.533333 8.533333 8.533333 21.333333 0 25.6-8.533333 4.266667-21.333333 4.266667-29.866667 0l-290.133333-256c-12.8-12.8-21.333333-25.6-21.333334-42.666666s8.533333-29.866667 21.333334-42.666667c12.8-12.8 29.866667-17.066667 51.2-17.066667 17.066667 0 34.133333 8.533333 51.2 17.066667l320 294.4c17.066667 17.066667 29.866667 38.4 29.866666 64s-8.533333 46.933333-29.866666 64c-38.4 34.133333-102.4 38.4-145.066667 4.266667L298.666667 349.866667c-12.8-8.533333-29.866667-8.533333-42.666667 0-4.266667 4.266667-8.533333 12.8-8.533333 17.066666 0 8.533333 4.266667 12.8 8.533333 17.066667l273.066667 243.2c29.866667 29.866667 68.266667 42.666667 110.933333 42.666667 89.6 0 162.133333-64 162.133333-145.066667 0-38.4-17.066667-72.533333-46.933333-102.4L435.2 128c-25.6-21.333333-55.466667-34.133333-93.866667-34.133333-29.866667 0-59.733333 12.8-85.333333 38.4z"  horiz-adv-x="1024" />

    
    <glyph glyph-name="top" unicode="&#58900;" d="M896 896h-768A128 128 0 0 1 0 768v-768A128 128 0 0 1 128-128h768a128 128 0 0 1 128 128v768A128 128 0 0 1 896 896Zm35.84-826.88a104.96 104.96 0 0 0-104.96-104.96H197.12a104.96 104.96 0 0 0-104.96 104.96V698.88A104.96 104.96 0 0 0 197.12 803.84h629.76a104.96 104.96 0 0 0 104.96-104.96v-629.76ZM438.886 691.2h390.042v-82.944h-168.55l-11.4688-64.8192h162.202v-308.326h-85.4016v227.328h-196.966V230.39999999999998H443.341V543.437h109.568l11.52 64.768H438.835V691.2ZM328.96 178.73900000000003c0-27.648-4.864-49.5104-14.592-65.536-9.728-16.128-22.9376-26.2144-39.6288-30.3104-16.7424-4.096-54.272-6.0928-112.64-6.0928a823.296 823.296 0 0 1-15.8208 88.3712c21.0944-2.304 41.6768-3.4304 61.7984-3.4304 18.3296 0 27.4944 9.984 27.4944 29.9008V598.067H147.661V691.2h242.432v-93.1328H328.96v-419.328ZM818.176 79.36000000000001a3098.27 3098.27 0 0 1-175.514 123.699c-31.5392-48.64-97.024-90.7776-196.506-126.259a825.088 825.088 0 0 1-56.064 84.4288c50.432 12.7488 92.416 29.3888 125.952 49.9712 33.4848 20.5824 55.7056 48.7424 66.56 84.5824 10.8544 35.84 16.2816 82.2784 16.2816 139.418h92.4672c0-63.4368-5.4784-116.122-16.4864-158.106a3898.73 3898.73 0 0 0 202.854-127.59l-59.5456-70.144Z"  horiz-adv-x="1024" />

    
    <glyph glyph-name="more" unicode="&#58899;" d="M678.4 486.4c-49.3056 0-89.6-40.2944-89.6-89.6s40.2944-89.6 89.6-89.6S768 347.494 768 396.8 727.706 486.4 678.4 486.4Zm307.2 0c-49.2544 0-89.6-40.2944-89.6-89.6s40.3456-89.6 89.6-89.6S1075.2 347.494 1075.2 396.8 1034.85 486.4 985.6 486.4ZM358.4 486.4c-49.3056 0-89.6-40.2944-89.6-89.6S309.094 307.20000000000004 358.4 307.20000000000004s89.6 40.2944 89.6 89.6S407.706 486.4 358.4 486.4Z"  horiz-adv-x="1331" />

    
    <glyph glyph-name="down-menu" unicode="&#58898;" d="M541.056 241.472l174.528 232.704a43.648 43.648 0 0 1-34.88 69.824H331.648a43.648 43.648 0 0 1-34.944-69.76l174.528-232.768a43.648 43.648 0 0 1 69.824 0z"  horiz-adv-x="1024" />

    
    <glyph glyph-name="back" unicode="&#58885;" d="M240.241778 353.109333a44.032 44.032 0 0 0 0 61.781334l400.668444 405.674666a62.008889 62.008889 0 0 0 88.462222 0c24.405333-24.689778 24.405333-64.796444 0-89.486222L386.616889 384l342.755555-347.022222c24.405333-24.746667 24.405333-64.853333 0-89.543111a62.008889 62.008889 0 0 0-88.462222 0l-400.668444 405.617777z"  horiz-adv-x="1024" />

    
    <glyph glyph-name="money" unicode="&#58886;" d="M512.32 832a448 448 0 1 1-0.64-896 448 448 0 0 1 0.64 896z m161.216-518.272a34.24 34.24 0 0 0 34.24-34.56 34.816 34.816 0 0 0-35.136-35.968H550.848v-70.784a38.016 38.016 0 1 0-75.712 0V243.2H350.784a34.816 34.816 0 1 0 0 69.696h124.352v40.32H350.784a34.816 34.816 0 1 0 0 69.632h94.08L339.584 577.472a35.2 35.2 0 0 0 57.6 40.32l115.2-167.872 115.2 167.616a34.816 34.816 0 1 0 57.536-39.168L578.496 425.152h93.888a34.816 34.816 0 0 0 0-69.632h-120.96v-40.64l122.112-1.152z"  horiz-adv-x="1024" />

    
    <glyph glyph-name="praise-after" unicode="&#58887;" d="M591.168-5.952c-24.768-23.68-48.384-33.024-76.288-34.688-30.912-1.792-55.552 8.768-82.752 34.688l-2.24 2.24a7503.232 7503.232 0 0 0-44.16 47.04 12258.24 12258.24 0 0 0-97.28 105.152l-8 8.768c-67.648 74.304-113.152 126.72-131.456 153.28C95.424 388.032 64 462.656 64 530.944 64 676.48 174.08 800 318.912 800c95.808 0 178.688-47.488 241.152-127.936l-96.448 1.472c65.536 79.36 147.2 126.464 241.472 126.464C849.984 800 960 676.48 960 530.944c0-68.48-22.464-125.76-72.896-201.152-18.112-27.136-65.92-83.072-138.112-163.456l-8.128-9.024a13242.88 13242.88 0 0 0-147.136-160.64l-2.56-2.56z"  horiz-adv-x="1024" />

    
    <glyph glyph-name="publish" unicode="&#58888;" d="M948.032 682.24l-41.664-41.344-138.752 137.856 41.664 41.28c15.36 15.232 39.424 16 53.76 1.792l86.656-86.144c14.4-14.272 13.568-38.208-1.664-53.44zM580.16 316.608L441.408 454.464l305.152 303.232 138.688-137.856-305.088-303.232z m-19.328-19.2l-194.176-55.04 55.424 192.896 138.752-137.856zM237.568 716.672c-48 0-86.784-38.784-86.784-86.72v-520.512c0-47.872 38.784-86.72 86.72-86.72h520.576c47.936 0 86.72 38.848 86.72 86.72V456.512l86.784 86.656v-462.656A144.576 144.576 0 0 0 787.008-64H208.64A144.576 144.576 0 0 0 64 80.512V658.88a144.576 144.576 0 0 0 144.576 144.576h462.72L584.64 716.672H237.568z"  horiz-adv-x="1024" />

    
    <glyph glyph-name="right" unicode="&#58889;" d="M731.733333 354.986667a41.301333 41.301333 0 0 1 0 58.026666L356.096 793.173333a58.197333 58.197333 0 0 1-82.944 0 59.904 59.904 0 0 1 0-83.882666L594.517333 384 273.152 58.624a59.989333 59.989333 0 0 1 0-83.882667 58.197333 58.197333 0 0 1 82.944 0L731.733333 354.986667z"  horiz-adv-x="1024" />

    
    <glyph glyph-name="right-arrow" unicode="&#58890;" d="M768 382.912L318.912 832 256 769.088 705.088 320zM704.128 448L256-0.128l63.872-63.872L768 384.128z"  horiz-adv-x="1024" />

    
    <glyph glyph-name="search" unicode="&#58891;" d="M983.04-128c-10.24 0-20.48 5.12-30.72 10.24l-256 256c-76.8-66.56-168.96-97.28-271.36-97.28-112.64 0-220.16 46.08-302.08 122.88C40.96 245.76 0 353.28 0 465.92s46.08 220.16 122.88 302.08C199.68 849.92 312.32 890.88 424.96 890.88s220.16-46.08 302.08-122.88c81.92-81.92 122.88-189.44 122.88-302.08 0-97.28-35.84-194.56-97.28-266.24l256-256c15.36-15.36 15.36-40.96 0-61.44-5.12-5.12-15.36-10.24-25.6-10.24Zm-5.12 35.84ZM414.72 128h10.24a343.04 343.04 0 1 1-343.04 343.04c0-179.2 138.24-327.68 317.44-343.04h15.36Z"  horiz-adv-x="1024" />

    
    <glyph glyph-name="Shape" unicode="&#58892;" d="M0 42.6496c0-31.232 25.6-56.832 56.8832-56.832h284.4672v113.7152H56.832c-31.2832 0-56.8832-25.6-56.8832-56.832zM0 725.3504c0-31.2832 25.6-56.8832 56.8832-56.8832h512V782.2336h-512C25.6 782.2336 0 756.6336 0 725.3504zM568.8832-71.168v56.8832h398.2336c31.2832 0 56.8832 25.6 56.8832 56.8832s-25.6 56.8832-56.8832 56.8832H568.832v56.9344c0 31.232-25.6 56.832-56.8832 56.832s-56.8832-25.6-56.8832-56.832v-227.584C455.1168-102.4 480.7168-128 512-128s56.8832 25.6 56.8832 56.8832zM227.5328 497.7664v-56.832H56.8832C25.6 440.8832 0 415.2832 0 384c0-31.2832 25.6-56.8832 56.8832-56.8832h170.6496v-56.8832c0-31.2832 25.6-56.8832 56.9344-56.8832 31.232 0 56.832 25.6 56.832 56.832V497.8176c0 31.2832-25.6 56.8832-56.832 56.8832-31.3344 0-56.9344-25.6-56.9344-56.832zM1024 384c0 31.2832-25.6 56.8832-56.8832 56.8832h-512v-113.7664h512c31.2832 0 56.8832 25.6 56.8832 56.8832z m-284.4672 170.6496c31.3344 0 56.9344 25.6 56.9344 56.8832V668.4672h170.6496c31.2832 0 56.8832 25.6 56.8832 56.832 0 31.3344-25.6 56.9344-56.8832 56.9344h-170.6496v56.832C796.4672 870.4 770.8672 896 739.5328 896c-31.232 0-56.832-25.6-56.832-56.8832v-227.584c0-31.232 25.6-56.832 56.832-56.832z"  horiz-adv-x="1024" />

    
    <glyph glyph-name="shouji" unicode="&#58893;" d="M597.333333-42.666667a42.666667 42.666667 0 1 0-85.333333 0 42.666667 42.666667 0 0 0 85.333333 0zM286.250667 896H780.373333C820.693333 896 853.333333 864.298667 853.333333 825.216V-57.173333c0-18.773333-7.68-36.778667-21.333333-50.048-13.696-13.269333-32.256-20.736-51.584-20.736H286.293333c-19.328 0-37.888 7.466667-51.541333 20.736-13.696 13.226667-21.376 31.274667-21.376 50.048V825.173333C213.333333 864.298667 245.973333 896 286.250667 896z m324.906666-43.477333h-112.981333a5.162667 5.162667 0 0 1-5.205333-5.12c0-2.773333 2.346667-5.034667 5.205333-5.034667h111.061333a5.290667 5.290667 0 0 1 4.522667 2.56 4.949333 4.949333 0 0 1 0 5.034667 5.290667 5.290667 0 0 1-4.522667 2.56h1.92zM544-106.666667a53.333333 53.333333 0 1 1 0 106.666667 53.333333 53.333333 0 0 1 0-106.666667zM298.666667 42.666667h469.333333V810.666667H298.666667v-768z"  horiz-adv-x="1024" />

    
    <glyph glyph-name="weixin" unicode="&#58894;" d="M140.16 246.272l-34.986667-102.826667 122.410667 59.946667c40.192-9.898667 81.322667-15.616 122.709333-17.194667 11.008 0 21.930667 0.512 32.725334 1.322667a247.637333 247.637333 0 0 0-10.794667 71.594667c-0.042667 149.376 131.370667 270.677333 297.728 270.677333 11.264 0 22.528-0.682667 33.706667-1.92-29.781333 135.637333-176.426667 236.928-345.173334 240.128H343.04C155.818667 764.8 3.328 640.469333 0.085333 482.304v-10.965333c2.133333-91.306667 54.229333-166.485333 140.074667-225.066667zM481.706667 622.506667a40.746667 40.746667 0 0 0 43.776-42.666667 40.96 40.96 0 0 0-43.818667-42.837333 48.853333 48.853333 0 0 0-52.608 42.794666A48.725333 48.725333 0 0 0 481.706667 622.506667z m-245.162667 0a40.746667 40.746667 0 0 0 43.733333-42.666667 40.917333 40.917333 0 0 0-43.818666-42.837333h0.085333c-26.24 0-52.778667 17.194667-52.778667 42.794666 0 25.642667 26.453333 42.709333 52.778667 42.709334zM692.181333 511.402667c-166.656 0-297.898667-111.445333-297.898666-248.192s131.242667-248.192 297.898666-248.192a449.28 449.28 0 0 1 105.130667 17.152l96-51.328-26.282667 85.418666c70.229333 51.498667 122.624 119.808 122.624 196.949334v6.058666c-4.053333 133.973333-142.378667 242.133333-297.472 242.133334z m-96.682666-205.397334h0.085333a37.12 37.12 0 0 0-34.986667 34.218667 37.290667 37.290667 0 0 0 34.986667 34.176 39.765333 39.765333 0 0 0 43.861333-34.133333 39.552 39.552 0 0 0-43.946666-34.261334z m192.725333 0h0.085333a37.034667 37.034667 0 0 0-34.816 34.218667 37.205333 37.205333 0 0 0 34.816 34.176 39.893333 39.893333 0 0 0 43.818667-34.133333 39.765333 39.765333 0 0 0-43.946667-34.261334z"  horiz-adv-x="1024" />

    
    <glyph glyph-name="yonghu" unicode="&#58895;" d="M487.637333-128C265.386667-128 85.333333-29.525333 85.333333 91.946667c0 121.514667 180.096 219.989333 402.304 219.989333 222.165333 0 402.261333-98.474667 402.261334-219.989333 0-121.472-180.096-219.946667-402.261334-219.946667z m-3.797333 462.677333c-153.642667 0-278.186667 125.653333-278.186667 280.661334C205.653333 770.346667 330.197333 896 483.84 896c153.685333 0 278.229333-125.653333 278.229333-280.661333 0-155.008-124.586667-280.661333-278.186666-280.661334z"  horiz-adv-x="1024" />

    


  </font>
</defs>
</svg>
