<?xml version="1.0" encoding="UTF-8"?>
<svg width="28px" height="28px" viewBox="0 0 28 28" version="1.1" xmlns="http://www.w3.org/2000/svg" xmlns:xlink="http://www.w3.org/1999/xlink">
    <title>形状结合</title>
    <g id="用户" stroke="none" stroke-width="1" fill="none" fill-rule="evenodd">
        <g id="2-1用户角色-修改" transform="translate(-781.000000, -303.000000)" fill="#AAAAAA">
            <g id="table" transform="translate(304.000000, 157.000000)">
                <g id="2备份-2" transform="translate(27.000000, 140.000000)">
                    <g id="编组-5备份-4" transform="translate(444.000000, 0.000000)">
                        <path d="M20,6 C27.7319865,6 34,12.2680135 34,20 C34,27.7319865 27.7319865,34 20,34 C12.2680135,34 6,27.7319865 6,20 C6,12.2680135 12.2680135,6 20,6 Z M19.9958725,10 C19.6890689,10 19.3755325,10.0233425 19.0554386,10.0699774 C18.7352696,10.1166124 18.4117467,10.2064584 18.0849451,10.3397154 C17.7580934,10.4727975 17.4412282,10.6559135 17.1344246,10.8891882 C16.827646,11.1221381 16.5474231,11.4252404 16.2939559,11.7982201 C16.0138331,12.1844455 15.8070948,12.6207548 15.673616,13.106848 C15.5402623,13.5930912 15.4468546,14.0492941 15.3934931,14.4755066 C15.3401567,14.9816684 15.3134759,15.4878802 15.3134759,15.9940169 C15.1667318,16.127174 15.0533511,16.2671039 14.9732588,16.4136316 C14.8932416,16.5467887 14.8365513,16.7066871 14.8032379,16.893127 C14.7698244,17.0795668 14.7865436,17.2859753 14.8532705,17.5125272 C14.9198973,17.7389542 15.0066723,17.9154473 15.1133703,18.0419565 C15.2200683,18.1684157 15.3268664,18.2650095 15.4335643,18.331738 C15.5536277,18.3982666 15.673616,18.4382537 15.7937044,18.4514994 C15.8566447,18.6657946 15.9233569,18.8789672 15.99381,19.0909182 C16.060898,19.2648961 16.1377157,19.4349756 16.2239002,19.6003539 C16.3106752,19.7669002 16.4073867,19.8967583 16.5141097,19.9900282 C16.7275807,20.1764681 16.9276863,20.359684 17.1144015,20.539451 C17.3012419,20.719268 17.4079148,20.9623646 17.4345955,21.2687158 C17.4478608,21.4818471 17.4546186,21.6749598 17.4546186,21.848079 C17.454933,22.0195784 17.4209113,22.1894103 17.3545533,22.3475929 C17.2878264,22.5075163 17.1811535,22.6673398 17.0343843,22.8272382 C16.8876151,22.9870117 16.6741441,23.153558 16.3940213,23.3267521 C16.0338812,23.5531541 15.6235833,23.7263233 15.163403,23.8460846 C14.7031976,23.966021 14.2596113,24.1026019 13.8327444,24.2557775 C13.4058524,24.4089281 13.0323219,24.6119876 12.7121278,24.865131 C12.3919588,25.1181744 12.1918532,25.4911791 12.111836,25.9840202 C11.9917476,26.8498409 11.9683456,27.5558133 12.0417552,28.1019371 C12.1151648,28.648061 12.2185089,28.9743308 12.3519878,29.0809214 C12.43203,29.1475499 12.622049,29.2140535 12.9221949,29.280707 C13.2223409,29.3473605 13.5925675,29.413889 14.03285,29.4805175 C14.4730073,29.547171 14.9566397,29.6104006 15.483572,29.6703813 C16.0164387,29.7308738 16.5501028,29.7841449 17.084417,29.8301798 C17.6075986,29.8754737 18.1312293,29.9154379 18.6552273,29.9500661 C19.1621616,29.9833304 19.6090516,30 19.9958725,30 C20.3827934,30 20.8330373,29.9866293 21.3465792,29.9600129 C21.8602462,29.9333715 22.3904823,29.8934844 22.9374377,29.8400516 C23.4843179,29.7868437 24.0312733,29.7269381 24.5782287,29.6603096 C25.1251841,29.593681 25.618803,29.5171057 26.0590604,29.4305586 C26.4992177,29.3440116 26.8694193,29.2540906 27.1695903,29.1608206 C27.4697612,29.0675507 27.6531476,28.9743308 27.7198745,28.8811108 C27.8132821,28.7345581 27.8833379,28.5215018 27.9299416,28.2416671 C27.9766454,27.9620073 28,27.6623039 28,27.342557 C28.0001711,27.025548 27.9834784,26.7087536 27.9499897,26.3935131 C27.9166513,26.080589 27.8666436,25.8241967 27.7998917,25.6243861 C27.6798283,25.2646771 27.4764189,24.9816684 27.1895883,24.775285 C26.9027077,24.5687266 26.575906,24.3955324 26.2091083,24.2557525 C25.8422105,24.1158726 25.4620223,23.9926624 25.0684687,23.8861217 C24.6748901,23.7795561 24.3180789,23.6596947 23.9979099,23.5265377 C23.6243543,23.37996 23.33427,23.2134137 23.1274066,23.0270238 C22.9206934,22.8404839 22.7672916,22.6439973 22.6672262,22.4375639 C22.5671859,22.2310805 22.5138495,22.0245971 22.5071918,21.8181636 C22.5002885,21.6137991 22.5170776,21.4093229 22.5572245,21.2088102 C22.610586,20.8757426 22.7172839,20.6393688 22.8773184,20.4994389 C23.0374529,20.359659 23.2375586,20.1898138 23.4776352,19.9900282 C23.5843332,19.8967583 23.6809696,19.7669002 23.7678197,19.6003539 C23.8538399,19.4348961 23.9306534,19.2648258 23.9979099,19.0909182 C24.0679989,18.8788502 24.1347092,18.6656837 24.1980155,18.4514994 C24.35815,18.4116123 24.5115518,18.3383359 24.658296,18.2318202 C24.7782843,18.1385503 24.891715,18.0120411 24.998438,17.8520927 C25.1047355,17.6923192 25.1713623,17.4658922 25.1985436,17.1728118 C25.2256999,16.9597555 25.2123846,16.7798635 25.1585725,16.6334357 C25.105211,16.486883 25.0451418,16.3669966 24.9783899,16.2737017 C24.8983727,16.1672111 24.7983324,16.080564 24.678244,16.0140105 C24.6915684,15.4799681 24.6648212,14.9456792 24.5982267,14.415626 C24.5316,13.962747 24.4148404,13.4765038 24.2480231,12.9569964 C24.081356,12.4376139 23.8312178,11.9647414 23.4976583,11.5385288 C23.3376239,11.352089 23.1375183,11.1656491 22.8973414,10.9790093 C22.6572898,10.7926694 22.3871284,10.6261481 22.0869825,10.4794954 C21.7868366,10.3330926 21.4600099,10.2165052 21.1065025,10.1298581 C20.7529951,10.043311 20.3828184,10 19.9958725,10 Z M20.0559667,19.4704208 C20.2960434,19.4704208 20.5028818,19.5570678 20.6762316,19.730262 C20.8496314,19.9034062 20.9364064,20.1164624 20.9364064,20.3695558 C20.9364064,20.6226242 20.8496815,20.8357805 20.6762316,21.0089746 C20.5028818,21.1820938 20.2960434,21.2686659 20.0559667,21.2686659 C19.8025496,21.2686409 19.5890536,21.1821188 19.4156037,21.0089746 C19.2421788,20.8358055 19.1555039,20.6226242 19.1555039,20.3695558 C19.1555039,20.1164624 19.2421538,19.9034062 19.4156037,19.730237 C19.5890286,19.5570678 19.8025496,19.4704208 20.0559667,19.4704208 Z M20.0958877,12.1777477 C20.5761162,12.1777477 20.9930467,12.2477001 21.3465541,12.38763 C21.7000616,12.5274099 21.990221,12.7205976 22.2170073,12.9670181 C22.4437937,13.2134387 22.6039533,13.5030953 22.6972358,13.8361628 C22.7906685,14.1690555 22.8307147,14.5220916 22.8173493,14.8950713 C22.7906685,15.2413847 22.6705801,15.5510598 22.4571842,15.8240967 C22.2438132,16.0971837 22.0102941,16.3402803 21.756827,16.5533615 C21.5033849,16.7665428 21.2764984,16.9630294 21.0763928,17.1428214 C20.8763122,17.3226135 20.7830046,17.4924587 20.796295,17.6522571 L20.796295,17.6522322 L20.796295,17.9919476 C20.796295,18.1783875 20.7329469,18.3382609 20.6062509,18.471443 C20.4795299,18.6047 20.3027511,18.6778764 20.0758897,18.6912471 C19.8491033,18.6779764 19.6690458,18.6047 19.5356921,18.471443 C19.4023134,18.3382609 19.3289038,18.198381 19.3155133,18.0518283 L19.3155133,18.0518283 L19.3155133,17.5124772 C19.3288287,17.206101 19.4422594,16.939687 19.6557555,16.71326 C19.8691764,16.486808 20.0992416,16.2736268 20.346051,16.0738412 C20.5928605,15.8740556 20.8196469,15.677569 21.0263851,15.4845312 C21.2332235,15.2913435 21.3365927,15.0682405 21.3365927,14.8151721 C21.349883,14.4821045 21.2264657,14.2056937 20.966366,13.9860145 C20.7062912,13.7662104 20.3560876,13.6562459 19.9158302,13.6562459 C19.7024343,13.6562459 19.5056324,13.7096286 19.3254748,13.8161443 C19.1454173,13.9226849 18.9919905,14.055842 18.8652944,14.2157654 C18.7385734,14.3755639 18.6385081,14.5387612 18.5651235,14.7052076 C18.4917639,14.8717289 18.4551217,15.0149577 18.4551217,15.134869 C18.4551217,15.3212839 18.3817622,15.4678366 18.235018,15.5743523 C18.0882489,15.6808929 17.9247855,15.7308518 17.7447029,15.7242039 C17.5646204,15.7176061 17.4012822,15.6576754 17.254513,15.5444119 C17.1077438,15.4311485 17.0277266,15.2480325 17.0143612,14.9949641 C17.0143612,14.7818079 17.061065,14.5121448 17.1544477,14.1858251 C17.2477802,13.8594553 17.4145725,13.5497302 17.6546992,13.2566497 C17.8947759,12.9636942 18.2149699,12.7106258 18.6151812,12.4974696 C19.0153674,12.2842883 19.5089613,12.1777477 20.0958877,12.1777477 Z" id="形状结合"></path>
                    </g>
                </g>
            </g>
        </g>
    </g>
</svg>