<?xml version="1.0" encoding="UTF-8"?>
<svg width="28px" height="28px" viewBox="0 0 28 28" version="1.1" xmlns="http://www.w3.org/2000/svg" xmlns:xlink="http://www.w3.org/1999/xlink">
    <title>形状结合</title>
    <g id="用户" stroke="none" stroke-width="1" fill="none" fill-rule="evenodd">
        <g id="2-1用户角色-修改" transform="translate(-781.000000, -232.000000)" fill="#1878F3">
            <g id="table" transform="translate(304.000000, 157.000000)">
                <g id="2" transform="translate(27.000000, 69.000000)">
                    <g id="编组-5备份-4" transform="translate(444.000000, 0.000000)">
                        <path d="M20,6 C27.7319865,6 34,12.2680135 34,20 C34,27.7319865 27.7319865,34 20,34 C12.2680135,34 6,27.7319865 6,20 C6,12.2680135 12.2680135,6 20,6 Z M24.5444392,22 L23.0053208,27.4226724 C23.0053208,27.4226724 22.9287211,27.9784882 22.2939042,27.9784882 C21.6590872,27.9784882 21.3911706,27.4226724 21.3911706,27.4226724 L21.3911706,27.4226724 L21.3911706,23 C21.3911706,23 21.3911706,22 20.366476,22 C19.3417814,22 19.3061192,23 19.3061192,23 L19.3061192,27.4226724 C19.3061192,27.4226724 19.3061192,27.8918972 18.5202399,27.8918972 C17.7343606,27.8918972 17.6903923,27.4226724 17.6903923,27.4226724 L17.6903923,27.4226724 L16.1183529,22 L14.0429636,23.0354864 C12.9146351,23.5984502 12,25.0770009 12,26.3379564 L12,26.3379564 L12,27.7168381 C12,28.9779827 13.0221461,30 14.2830271,30 L14.2830271,30 L26.3836396,30 C27.644497,30 28.6666667,28.9777936 28.6666667,27.7168381 L28.6666667,27.7168381 L28.6666667,26.3379564 C28.6666667,25.0768118 27.7518161,23.5987717 26.6232906,23.0362389 L26.6232906,23.0362389 L24.5444392,22 Z M20.3333333,10 C17.7444986,10 15.6458333,12.0219398 15.6458333,14.516129 C15.6458333,17.0103182 17.7444986,20 20.3333333,20 C22.9221681,20 25.0208333,17.0103182 25.0208333,14.516129 C25.0208333,12.0219398 22.9221681,10 20.3333333,10 Z" id="形状结合"></path>
                    </g>
                </g>
            </g>
        </g>
    </g>
</svg>