<?xml version="1.0" encoding="UTF-8"?>
<svg width="28px" height="28px" viewBox="0 0 28 28" version="1.1" xmlns="http://www.w3.org/2000/svg" xmlns:xlink="http://www.w3.org/1999/xlink">
    <title>形状结合</title>
    <g id="用户" stroke="none" stroke-width="1" fill="none" fill-rule="evenodd">
        <g id="2-1用户角色-修改" transform="translate(-781.000000, -374.000000)" fill="#FAB700" fill-rule="nonzero">
            <g id="table" transform="translate(304.000000, 157.000000)">
                <g id="2备份" transform="translate(27.000000, 211.000000)">
                    <g id="编组-5备份-4" transform="translate(444.000000, 0.000000)">
                        <g id="编组" transform="translate(6.000000, 6.000000)">
                            <path d="M13.9233118,0.000982174614 C21.6124021,0.000982174614 27.8456414,6.23422146 27.8456414,13.9233118 C27.8456414,21.6124021 21.6124021,27.8456414 13.9233118,27.8456414 C6.23422146,27.8456414 0.000982174928,21.6124021 0.000982174928,13.9233118 C0.000982174928,6.23422146 6.23422146,0.000982174614 13.9233118,0.000982174614 Z M13.2603437,7.51462038 L5.7467055,7.51462038 L5.7467055,8.851606 C6.1813605,8.82853195 6.61655822,8.88545971 7.03065368,9.01955791 C7.32310575,9.12411962 7.57569713,9.3172323 7.75328888,9.57203131 C8.01214567,10.0376393 8.2402522,10.5196897 8.436146,11.0150918 L8.436146,11.0150918 L13.1454292,22.0999181 L14.0956835,22.0999181 L18.5928169,11.5344168 C18.882313,10.8957576 19.0988826,10.3742227 19.255785,10.075887 C19.3819678,9.82093726 19.5393391,9.58265338 19.7242825,9.3665112 C19.8900245,9.1941395 19.8900245,9.06154589 20.1110138,8.98419961 C20.3288957,8.92567877 20.5503522,8.88138747 20.7739819,8.851606 L20.7739819,8.851606 L20.7739819,7.51462038 L16.1332054,7.51462038 L16.1332054,8.851606 C16.5896086,8.83764969 17.0451585,8.89963436 17.4812405,9.03502716 C17.7862058,9.14552184 17.9011202,9.41954865 17.9011202,9.86152737 C17.8432409,10.2907057 17.7148088,10.7073633 17.5210185,11.094648 L17.5210185,11.094648 L14.5862799,17.9983556 L11.4349716,10.6084714 C11.2960065,10.3005696 11.2294789,9.96490761 11.240501,9.62727865 C11.2387126,9.33879069 11.4338238,9.08624013 11.7134182,9.01513812 C12.2226605,8.91139109 12.740665,8.85663062 13.2603437,8.851606 L13.2603437,8.851606 L13.2603437,7.51462038 Z" id="形状结合"></path>
                        </g>
                    </g>
                </g>
            </g>
        </g>
    </g>
</svg>